  0
SECTION
  2
HEADER
  9
$ACADVER
  1
AC1009
  9
$FILLMODE
 70
 0
  9
$SPLFRAME
 70
 1
  9
$EXTMIN
 10
0
 20
0
 30
0.0
  9
$EXTMAX
 10
41.6667
 20
41.6667
 30
0.0
  0
ENDSEC
  0
SECTION
  2
TABLES
  0
TABLE
  2
LAYER
 70
1
  0
LAYER
  2
0
 70
     0
 62
     7
  6
CONTINUOUS
  0
ENDTAB
  0
ENDSEC
  0
SECTION
  2
ENTITIES
  0
POLYLINE
  8
0
 62
     174
 66
     1
 10
0
 20
0
 30
0.0
 70
     1
 40
1.04167
 41
1.04167
  0
VERTEX
  8
0
 10
3.76828
 20
51.4964
 30
0.0
 40
0.0144676
 41
0.0144676
  0
VERTEX
  8
0
 10
3.76828
 20
51.4633
 30
0.0
 40
0.0144676
 41
0.0144676
  0
VERTEX
  8
0
 10
3.75493
 20
51.3642
 30
0.0
 40
0.0144676
 41
0.0144676
  0
VERTEX
  8
0
 10
3.71669
 20
51.2411
 30
0.0
 40
0.0144676
 41
0.0144676
  0
VERTEX
  8
0
 10
3.65619
 20
51.1296
 30
0.0
 40
0.0144676
 41
0.0144676
  0
VERTEX
  8
0
 10
3.57607
 20
51.0325
 30
0.0
 40
0.0144676
 41
0.0144676
  0
VERTEX
  8
0
 10
3.47889
 20
50.9524
 30
0.0
 40
0.0144676
 41
0.0144676
  0
VERTEX
  8
0
 10
3.36746
 20
50.8918
 30
0.0
 40
0.0144676
 41
0.0144676
  0
VERTEX
  8
0
 10
3.24425
 20
50.8536
 30
0.0
 40
0.0144676
 41
0.0144676
  0
VERTEX
  8
0
 10
3.14507
 20
50.8403
 30
0.0
 40
0.0144676
 41
0.0144676
  0
VERTEX
  8
0
 10
3.11203
 20
50.8403
 30
0.0
 40
0.0144676
 41
0.0144676
  0
VERTEX
  8
0
 10
3.07894
 20
50.8403
 30
0.0
 40
0.0144676
 41
0.0144676
  0
VERTEX
  8
0
 10
2.97976
 20
50.8536
 30
0.0
 40
0.0144676
 41
0.0144676
  0
VERTEX
  8
0
 10
2.85661
 20
50.8918
 30
0.0
 40
0.0144676
 41
0.0144676
  0
VERTEX
  8
0
 10
2.74517
 20
50.9524
 30
0.0
 40
0.0144676
 41
0.0144676
  0
VERTEX
  8
0
 10
2.64806
 20
51.0325
 30
0.0
 40
0.0144676
 41
0.0144676
  0
VERTEX
  8
0
 10
2.56793
 20
51.1296
 30
0.0
 40
0.0144676
 41
0.0144676
  0
VERTEX
  8
0
 10
2.50749
 20
51.2411
 30
0.0
 40
0.0144676
 41
0.0144676
  0
VERTEX
  8
0
 10
2.46924
 20
51.3642
 30
0.0
 40
0.0144676
 41
0.0144676
  0
VERTEX
  8
0
 10
2.45594
 20
51.4633
 30
0.0
 40
0.0144676
 41
0.0144676
  0
VERTEX
  8
0
 10
2.45594
 20
51.4964
 30
0.0
 40
0.0144676
 41
0.0144676
  0
VERTEX
  8
0
 10
2.45594
 20
51.5294
 30
0.0
 40
0.0144676
 41
0.0144676
  0
VERTEX
  8
0
 10
2.46924
 20
51.6286
 30
0.0
 40
0.0144676
 41
0.0144676
  0
VERTEX
  8
0
 10
2.50749
 20
51.7518
 30
0.0
 40
0.0144676
 41
0.0144676
  0
VERTEX
  8
0
 10
2.56793
 20
51.8633
 30
0.0
 40
0.0144676
 41
0.0144676
  0
VERTEX
  8
0
 10
2.64806
 20
51.9604
 30
0.0
 40
0.0144676
 41
0.0144676
  0
VERTEX
  8
0
 10
2.74517
 20
52.0406
 30
0.0
 40
0.0144676
 41
0.0144676
  0
VERTEX
  8
0
 10
2.85661
 20
52.1011
 30
0.0
 40
0.0144676
 41
0.0144676
  0
VERTEX
  8
0
 10
2.97976
 20
52.1393
 30
0.0
 40
0.0144676
 41
0.0144676
  0
VERTEX
  8
0
 10
3.07894
 20
52.1526
 30
0.0
 40
0.0144676
 41
0.0144676
  0
VERTEX
  8
0
 10
3.11203
 20
52.1526
 30
0.0
 40
0.0144676
 41
0.0144676
  0
VERTEX
  8
0
 10
3.14507
 20
52.1526
 30
0.0
 40
0.0144676
 41
0.0144676
  0
VERTEX
  8
0
 10
3.24425
 20
52.1393
 30
0.0
 40
0.0144676
 41
0.0144676
  0
VERTEX
  8
0
 10
3.36746
 20
52.1011
 30
0.0
 40
0.0144676
 41
0.0144676
  0
VERTEX
  8
0
 10
3.47889
 20
52.0406
 30
0.0
 40
0.0144676
 41
0.0144676
  0
VERTEX
  8
0
 10
3.57607
 20
51.9604
 30
0.0
 40
0.0144676
 41
0.0144676
  0
VERTEX
  8
0
 10
3.65619
 20
51.8633
 30
0.0
 40
0.0144676
 41
0.0144676
  0
VERTEX
  8
0
 10
3.71669
 20
51.7518
 30
0.0
 40
0.0144676
 41
0.0144676
  0
VERTEX
  8
0
 10
3.75493
 20
51.6286
 30
0.0
 40
0.0144676
 41
0.0144676
  0
VERTEX
  8
0
 10
3.76828
 20
51.5294
 30
0.0
 40
0.0144676
 41
0.0144676
  0
VERTEX
  8
0
 10
3.76828
 20
51.4964
 30
0.0
 40
0.0144676
 41
0.0144676
  0
SEQEND
 8
0
  0
POLYLINE
  8
0
 62
     0
 66
     1
 10
0
 20
0
 30
0.0
 70
     1
 40
1.04167
 41
1.04167
  0
VERTEX
  8
0
 10
3.76833
 20
1.2589
 30
0.0
 40
0.0144676
 41
0.0144676
  0
VERTEX
  8
0
 10
3.76833
 20
1.22586
 30
0.0
 40
0.0144676
 41
0.0144676
  0
VERTEX
  8
0
 10
3.75499
 20
1.12668
 30
0.0
 40
0.0144676
 41
0.0144676
  0
VERTEX
  8
0
 10
3.71674
 20
1.00353
 30
0.0
 40
0.0144676
 41
0.0144676
  0
VERTEX
  8
0
 10
3.65619
 20
0.89209
 30
0.0
 40
0.0144676
 41
0.0144676
  0
VERTEX
  8
0
 10
3.57607
 20
0.795031
 30
0.0
 40
0.0144676
 41
0.0144676
  0
VERTEX
  8
0
 10
3.47894
 20
0.714953
 30
0.0
 40
0.0144676
 41
0.0144676
  0
VERTEX
  8
0
 10
3.3674
 20
0.65446
 30
0.0
 40
0.0144676
 41
0.0144676
  0
VERTEX
  8
0
 10
3.24419
 20
0.616265
 30
0.0
 40
0.0144676
 41
0.0144676
  0
VERTEX
  8
0
 10
3.14497
 20
0.602919
 30
0.0
 40
0.0144676
 41
0.0144676
  0
VERTEX
  8
0
 10
3.11193
 20
0.602919
 30
0.0
 40
0.0144676
 41
0.0144676
  0
VERTEX
  8
0
 10
3.07883
 20
0.602919
 30
0.0
 40
0.0144676
 41
0.0144676
  0
VERTEX
  8
0
 10
2.97965
 20
0.616265
 30
0.0
 40
0.0144676
 41
0.0144676
  0
VERTEX
  8
0
 10
2.8565
 20
0.65446
 30
0.0
 40
0.0144676
 41
0.0144676
  0
VERTEX
  8
0
 10
2.74507
 20
0.714953
 30
0.0
 40
0.0144676
 41
0.0144676
  0
VERTEX
  8
0
 10
2.64794
 20
0.795031
 30
0.0
 40
0.0144676
 41
0.0144676
  0
VERTEX
  8
0
 10
2.56782
 20
0.89209
 30
0.0
 40
0.0144676
 41
0.0144676
  0
VERTEX
  8
0
 10
2.50738
 20
1.00353
 30
0.0
 40
0.0144676
 41
0.0144676
  0
VERTEX
  8
0
 10
2.46912
 20
1.12668
 30
0.0
 40
0.0144676
 41
0.0144676
  0
VERTEX
  8
0
 10
2.45583
 20
1.22586
 30
0.0
 40
0.0144676
 41
0.0144676
  0
VERTEX
  8
0
 10
2.45583
 20
1.2589
 30
0.0
 40
0.0144676
 41
0.0144676
  0
VERTEX
  8
0
 10
2.45583
 20
1.29199
 30
0.0
 40
0.0144676
 41
0.0144676
  0
VERTEX
  8
0
 10
2.46912
 20
1.39117
 30
0.0
 40
0.0144676
 41
0.0144676
  0
VERTEX
  8
0
 10
2.50738
 20
1.51438
 30
0.0
 40
0.0144676
 41
0.0144676
  0
VERTEX
  8
0
 10
2.56782
 20
1.62582
 30
0.0
 40
0.0144676
 41
0.0144676
  0
VERTEX
  8
0
 10
2.64794
 20
1.72293
 30
0.0
 40
0.0144676
 41
0.0144676
  0
VERTEX
  8
0
 10
2.74507
 20
1.80311
 30
0.0
 40
0.0144676
 41
0.0144676
  0
VERTEX
  8
0
 10
2.8565
 20
1.86361
 30
0.0
 40
0.0144676
 41
0.0144676
  0
VERTEX
  8
0
 10
2.97965
 20
1.90186
 30
0.0
 40
0.0144676
 41
0.0144676
  0
VERTEX
  8
0
 10
3.07883
 20
1.91515
 30
0.0
 40
0.0144676
 41
0.0144676
  0
VERTEX
  8
0
 10
3.11193
 20
1.91515
 30
0.0
 40
0.0144676
 41
0.0144676
  0
VERTEX
  8
0
 10
3.14497
 20
1.91515
 30
0.0
 40
0.0144676
 41
0.0144676
  0
VERTEX
  8
0
 10
3.24419
 20
1.90186
 30
0.0
 40
0.0144676
 41
0.0144676
  0
VERTEX
  8
0
 10
3.3674
 20
1.86361
 30
0.0
 40
0.0144676
 41
0.0144676
  0
VERTEX
  8
0
 10
3.47894
 20
1.80311
 30
0.0
 40
0.0144676
 41
0.0144676
  0
VERTEX
  8
0
 10
3.57607
 20
1.72293
 30
0.0
 40
0.0144676
 41
0.0144676
  0
VERTEX
  8
0
 10
3.65619
 20
1.62582
 30
0.0
 40
0.0144676
 41
0.0144676
  0
VERTEX
  8
0
 10
3.71674
 20
1.51438
 30
0.0
 40
0.0144676
 41
0.0144676
  0
VERTEX
  8
0
 10
3.75499
 20
1.39117
 30
0.0
 40
0.0144676
 41
0.0144676
  0
VERTEX
  8
0
 10
3.76833
 20
1.29199
 30
0.0
 40
0.0144676
 41
0.0144676
  0
VERTEX
  8
0
 10
3.76833
 20
1.2589
 30
0.0
 40
0.0144676
 41
0.0144676
  0
SEQEND
 8
0
  0
POLYLINE
  8
0
 62
     0
 66
     1
 10
0
 20
0
 30
0.0
 70
     1
 40
1.04167
 41
1.04167
  0
VERTEX
  8
0
 10
14.1851
 20
51.4964
 30
0.0
 40
0.0144676
 41
0.0144676
  0
VERTEX
  8
0
 10
14.1851
 20
51.461
 30
0.0
 40
0.0144676
 41
0.0144676
  0
VERTEX
  8
0
 10
14.1699
 20
51.3547
 30
0.0
 40
0.0144676
 41
0.0144676
  0
VERTEX
  8
0
 10
14.126
 20
51.2238
 30
0.0
 40
0.0144676
 41
0.0144676
  0
VERTEX
  8
0
 10
14.0568
 20
51.1067
 30
0.0
 40
0.0144676
 41
0.0144676
  0
VERTEX
  8
0
 10
13.9908
 20
51.0292
 30
0.0
 40
0.0144676
 41
0.0144676
  0
VERTEX
  8
0
 10
13.9658
 20
51.0068
 30
0.0
 40
0.0144676
 41
0.0144676
  0
VERTEX
  8
0
 10
13.9442
 20
50.9875
 30
0.0
 40
0.0144676
 41
0.0144676
  0
VERTEX
  8
0
 10
13.8722
 20
50.9371
 30
0.0
 40
0.0144676
 41
0.0144676
  0
VERTEX
  8
0
 10
13.7668
 20
50.8847
 30
0.0
 40
0.0144676
 41
0.0144676
  0
VERTEX
  8
0
 10
13.6516
 20
50.8518
 30
0.0
 40
0.0144676
 41
0.0144676
  0
VERTEX
  8
0
 10
13.5596
 20
50.8403
 30
0.0
 40
0.0144676
 41
0.0144676
  0
VERTEX
  8
0
 10
13.5289
 20
50.8403
 30
0.0
 40
0.0144676
 41
0.0144676
  0
VERTEX
  8
0
 10
13.4958
 20
50.8403
 30
0.0
 40
0.0144676
 41
0.0144676
  0
VERTEX
  8
0
 10
13.3967
 20
50.8536
 30
0.0
 40
0.0144676
 41
0.0144676
  0
VERTEX
  8
0
 10
13.2735
 20
50.8918
 30
0.0
 40
0.0144676
 41
0.0144676
  0
VERTEX
  8
0
 10
13.1621
 20
50.9524
 30
0.0
 40
0.0144676
 41
0.0144676
  0
VERTEX
  8
0
 10
13.0649
 20
51.0325
 30
0.0
 40
0.0144676
 41
0.0144676
  0
VERTEX
  8
0
 10
12.9848
 20
51.1296
 30
0.0
 40
0.0144676
 41
0.0144676
  0
VERTEX
  8
0
 10
12.9244
 20
51.2411
 30
0.0
 40
0.0144676
 41
0.0144676
  0
VERTEX
  8
0
 10
12.8861
 20
51.3642
 30
0.0
 40
0.0144676
 41
0.0144676
  0
VERTEX
  8
0
 10
12.8728
 20
51.4633
 30
0.0
 40
0.0144676
 41
0.0144676
  0
VERTEX
  8
0
 10
12.8728
 20
51.4964
 30
0.0
 40
0.0144676
 41
0.0144676
  0
VERTEX
  8
0
 10
12.8728
 20
51.5294
 30
0.0
 40
0.0144676
 41
0.0144676
  0
VERTEX
  8
0
 10
12.8861
 20
51.6286
 30
0.0
 40
0.0144676
 41
0.0144676
  0
VERTEX
  8
0
 10
12.9244
 20
51.7518
 30
0.0
 40
0.0144676
 41
0.0144676
  0
VERTEX
  8
0
 10
12.9848
 20
51.8633
 30
0.0
 40
0.0144676
 41
0.0144676
  0
VERTEX
  8
0
 10
13.0649
 20
51.9604
 30
0.0
 40
0.0144676
 41
0.0144676
  0
VERTEX
  8
0
 10
13.1621
 20
52.0406
 30
0.0
 40
0.0144676
 41
0.0144676
  0
VERTEX
  8
0
 10
13.2735
 20
52.1011
 30
0.0
 40
0.0144676
 41
0.0144676
  0
VERTEX
  8
0
 10
13.3967
 20
52.1393
 30
0.0
 40
0.0144676
 41
0.0144676
  0
VERTEX
  8
0
 10
13.4958
 20
52.1526
 30
0.0
 40
0.0144676
 41
0.0144676
  0
VERTEX
  8
0
 10
13.5289
 20
52.1526
 30
0.0
 40
0.0144676
 41
0.0144676
  0
VERTEX
  8
0
 10
13.562
 20
52.1526
 30
0.0
 40
0.0144676
 41
0.0144676
  0
VERTEX
  8
0
 10
13.6611
 20
52.1393
 30
0.0
 40
0.0144676
 41
0.0144676
  0
VERTEX
  8
0
 10
13.7843
 20
52.1011
 30
0.0
 40
0.0144676
 41
0.0144676
  0
VERTEX
  8
0
 10
13.8958
 20
52.0406
 30
0.0
 40
0.0144676
 41
0.0144676
  0
VERTEX
  8
0
 10
13.9929
 20
51.9604
 30
0.0
 40
0.0144676
 41
0.0144676
  0
VERTEX
  8
0
 10
14.0731
 20
51.8633
 30
0.0
 40
0.0144676
 41
0.0144676
  0
VERTEX
  8
0
 10
14.1336
 20
51.7518
 30
0.0
 40
0.0144676
 41
0.0144676
  0
VERTEX
  8
0
 10
14.1718
 20
51.6286
 30
0.0
 40
0.0144676
 41
0.0144676
  0
VERTEX
  8
0
 10
14.1851
 20
51.5294
 30
0.0
 40
0.0144676
 41
0.0144676
  0
VERTEX
  8
0
 10
14.1851
 20
51.4964
 30
0.0
 40
0.0144676
 41
0.0144676
  0
SEQEND
 8
0
  0
POLYLINE
  8
0
 62
     0
 66
     1
 10
0
 20
0
 30
0.0
 70
     1
 40
1.04167
 41
1.04167
  0
VERTEX
  8
0
 10
14.1853
 20
1.2589
 30
0.0
 40
0.0144676
 41
0.0144676
  0
VERTEX
  8
0
 10
14.1853
 20
1.22586
 30
0.0
 40
0.0144676
 41
0.0144676
  0
VERTEX
  8
0
 10
14.1719
 20
1.12668
 30
0.0
 40
0.0144676
 41
0.0144676
  0
VERTEX
  8
0
 10
14.1336
 20
1.00353
 30
0.0
 40
0.0144676
 41
0.0144676
  0
VERTEX
  8
0
 10
14.0731
 20
0.89209
 30
0.0
 40
0.0144676
 41
0.0144676
  0
VERTEX
  8
0
 10
13.9929
 20
0.795031
 30
0.0
 40
0.0144676
 41
0.0144676
  0
VERTEX
  8
0
 10
13.8958
 20
0.714953
 30
0.0
 40
0.0144676
 41
0.0144676
  0
VERTEX
  8
0
 10
13.7843
 20
0.65446
 30
0.0
 40
0.0144676
 41
0.0144676
  0
VERTEX
  8
0
 10
13.6611
 20
0.616265
 30
0.0
 40
0.0144676
 41
0.0144676
  0
VERTEX
  8
0
 10
13.5618
 20
0.602919
 30
0.0
 40
0.0144676
 41
0.0144676
  0
VERTEX
  8
0
 10
13.5288
 20
0.602919
 30
0.0
 40
0.0144676
 41
0.0144676
  0
VERTEX
  8
0
 10
13.4957
 20
0.602919
 30
0.0
 40
0.0144676
 41
0.0144676
  0
VERTEX
  8
0
 10
13.3965
 20
0.616265
 30
0.0
 40
0.0144676
 41
0.0144676
  0
VERTEX
  8
0
 10
13.2734
 20
0.65446
 30
0.0
 40
0.0144676
 41
0.0144676
  0
VERTEX
  8
0
 10
13.1619
 20
0.714953
 30
0.0
 40
0.0144676
 41
0.0144676
  0
VERTEX
  8
0
 10
13.0648
 20
0.795031
 30
0.0
 40
0.0144676
 41
0.0144676
  0
VERTEX
  8
0
 10
12.9847
 20
0.89209
 30
0.0
 40
0.0144676
 41
0.0144676
  0
VERTEX
  8
0
 10
12.9243
 20
1.00353
 30
0.0
 40
0.0144676
 41
0.0144676
  0
VERTEX
  8
0
 10
12.886
 20
1.12668
 30
0.0
 40
0.0144676
 41
0.0144676
  0
VERTEX
  8
0
 10
12.8727
 20
1.22586
 30
0.0
 40
0.0144676
 41
0.0144676
  0
VERTEX
  8
0
 10
12.8727
 20
1.2589
 30
0.0
 40
0.0144676
 41
0.0144676
  0
VERTEX
  8
0
 10
12.8727
 20
1.29199
 30
0.0
 40
0.0144676
 41
0.0144676
  0
VERTEX
  8
0
 10
12.886
 20
1.39117
 30
0.0
 40
0.0144676
 41
0.0144676
  0
VERTEX
  8
0
 10
12.9243
 20
1.51438
 30
0.0
 40
0.0144676
 41
0.0144676
  0
VERTEX
  8
0
 10
12.9847
 20
1.62582
 30
0.0
 40
0.0144676
 41
0.0144676
  0
VERTEX
  8
0
 10
13.0648
 20
1.72293
 30
0.0
 40
0.0144676
 41
0.0144676
  0
VERTEX
  8
0
 10
13.1619
 20
1.80311
 30
0.0
 40
0.0144676
 41
0.0144676
  0
VERTEX
  8
0
 10
13.2734
 20
1.86361
 30
0.0
 40
0.0144676
 41
0.0144676
  0
VERTEX
  8
0
 10
13.3965
 20
1.90186
 30
0.0
 40
0.0144676
 41
0.0144676
  0
VERTEX
  8
0
 10
13.4957
 20
1.91515
 30
0.0
 40
0.0144676
 41
0.0144676
  0
VERTEX
  8
0
 10
13.5288
 20
1.91515
 30
0.0
 40
0.0144676
 41
0.0144676
  0
VERTEX
  8
0
 10
13.5618
 20
1.91515
 30
0.0
 40
0.0144676
 41
0.0144676
  0
VERTEX
  8
0
 10
13.6611
 20
1.90186
 30
0.0
 40
0.0144676
 41
0.0144676
  0
VERTEX
  8
0
 10
13.7843
 20
1.86361
 30
0.0
 40
0.0144676
 41
0.0144676
  0
VERTEX
  8
0
 10
13.8958
 20
1.80311
 30
0.0
 40
0.0144676
 41
0.0144676
  0
VERTEX
  8
0
 10
13.9929
 20
1.72293
 30
0.0
 40
0.0144676
 41
0.0144676
  0
VERTEX
  8
0
 10
14.0731
 20
1.62582
 30
0.0
 40
0.0144676
 41
0.0144676
  0
VERTEX
  8
0
 10
14.1336
 20
1.51438
 30
0.0
 40
0.0144676
 41
0.0144676
  0
VERTEX
  8
0
 10
14.1719
 20
1.39117
 30
0.0
 40
0.0144676
 41
0.0144676
  0
VERTEX
  8
0
 10
14.1853
 20
1.29199
 30
0.0
 40
0.0144676
 41
0.0144676
  0
VERTEX
  8
0
 10
14.1853
 20
1.2589
 30
0.0
 40
0.0144676
 41
0.0144676
  0
SEQEND
 8
0
  0
POLYLINE
  8
0
 62
     0
 66
     1
 10
0
 20
0
 30
0.0
 70
     1
 40
0.735975
 41
0.735975
  0
VERTEX
  8
0
 10
0.00721571
 20
52.7149
 30
0.0
 40
0.0102219
 41
0.0102219
  0
VERTEX
  8
0
 10
16.5344
 20
52.7149
 30
0.0
 40
0.0102219
 41
0.0102219
  0
VERTEX
  8
0
 10
16.5344
 20
0.0164931
 30
0.0
 40
0.0102219
 41
0.0102219
  0
VERTEX
  8
0
 10
0.00721571
 20
0.0164931
 30
0.0
 40
0.0102219
 41
0.0102219
  0
VERTEX
  8
0
 10
0.00721571
 20
52.7149
 30
0.0
 40
0.0102219
 41
0.0102219
  0
SEQEND
 8
0
  0
POLYLINE
  8
0
 62
     0
 66
     1
 10
0
 20
0
 30
0.0
 70
     1
 40
1.05
 41
1.05
  0
VERTEX
  8
0
 10
3.59071
 20
44.0492
 30
0.0
 40
0.0145833
 41
0.0145833
  0
VERTEX
  8
0
 10
3.59071
 20
43.9875
 30
0.0
 40
0.0145833
 41
0.0145833
  0
VERTEX
  8
0
 10
3.56581
 20
43.8026
 30
0.0
 40
0.0145833
 41
0.0145833
  0
VERTEX
  8
0
 10
3.49451
 20
43.5729
 30
0.0
 40
0.0145833
 41
0.0145833
  0
VERTEX
  8
0
 10
3.38172
 20
43.3651
 30
0.0
 40
0.0145833
 41
0.0145833
  0
VERTEX
  8
0
 10
3.23236
 20
43.184
 30
0.0
 40
0.0145833
 41
0.0145833
  0
VERTEX
  8
0
 10
3.05126
 20
43.0347
 30
0.0
 40
0.0145833
 41
0.0145833
  0
VERTEX
  8
0
 10
2.84347
 20
42.9219
 30
0.0
 40
0.0145833
 41
0.0145833
  0
VERTEX
  8
0
 10
2.61376
 20
42.8506
 30
0.0
 40
0.0145833
 41
0.0145833
  0
VERTEX
  8
0
 10
2.42887
 20
42.8257
 30
0.0
 40
0.0145833
 41
0.0145833
  0
VERTEX
  8
0
 10
2.36724
 20
42.8257
 30
0.0
 40
0.0145833
 41
0.0145833
  0
VERTEX
  8
0
 10
2.30556
 20
42.8257
 30
0.0
 40
0.0145833
 41
0.0145833
  0
VERTEX
  8
0
 10
2.12067
 20
42.8506
 30
0.0
 40
0.0145833
 41
0.0145833
  0
VERTEX
  8
0
 10
1.891
 20
42.9219
 30
0.0
 40
0.0145833
 41
0.0145833
  0
VERTEX
  8
0
 10
1.68317
 20
43.0347
 30
0.0
 40
0.0145833
 41
0.0145833
  0
VERTEX
  8
0
 10
1.50211
 20
43.184
 30
0.0
 40
0.0145833
 41
0.0145833
  0
VERTEX
  8
0
 10
1.3527
 20
43.3651
 30
0.0
 40
0.0145833
 41
0.0145833
  0
VERTEX
  8
0
 10
1.23991
 20
43.5729
 30
0.0
 40
0.0145833
 41
0.0145833
  0
VERTEX
  8
0
 10
1.16862
 20
43.8026
 30
0.0
 40
0.0145833
 41
0.0145833
  0
VERTEX
  8
0
 10
1.14377
 20
43.9875
 30
0.0
 40
0.0145833
 41
0.0145833
  0
VERTEX
  8
0
 10
1.14377
 20
44.0492
 30
0.0
 40
0.0145833
 41
0.0145833
  0
VERTEX
  8
0
 10
1.14377
 20
44.1108
 30
0.0
 40
0.0145833
 41
0.0145833
  0
VERTEX
  8
0
 10
1.16862
 20
44.2957
 30
0.0
 40
0.0145833
 41
0.0145833
  0
VERTEX
  8
0
 10
1.23991
 20
44.5254
 30
0.0
 40
0.0145833
 41
0.0145833
  0
VERTEX
  8
0
 10
1.3527
 20
44.7332
 30
0.0
 40
0.0145833
 41
0.0145833
  0
VERTEX
  8
0
 10
1.50211
 20
44.9143
 30
0.0
 40
0.0145833
 41
0.0145833
  0
VERTEX
  8
0
 10
1.68317
 20
45.0638
 30
0.0
 40
0.0145833
 41
0.0145833
  0
VERTEX
  8
0
 10
1.891
 20
45.1765
 30
0.0
 40
0.0145833
 41
0.0145833
  0
VERTEX
  8
0
 10
2.12067
 20
45.2478
 30
0.0
 40
0.0145833
 41
0.0145833
  0
VERTEX
  8
0
 10
2.30556
 20
45.2726
 30
0.0
 40
0.0145833
 41
0.0145833
  0
VERTEX
  8
0
 10
2.36724
 20
45.2726
 30
0.0
 40
0.0145833
 41
0.0145833
  0
VERTEX
  8
0
 10
2.42887
 20
45.2726
 30
0.0
 40
0.0145833
 41
0.0145833
  0
VERTEX
  8
0
 10
2.61376
 20
45.2478
 30
0.0
 40
0.0145833
 41
0.0145833
  0
VERTEX
  8
0
 10
2.84347
 20
45.1765
 30
0.0
 40
0.0145833
 41
0.0145833
  0
VERTEX
  8
0
 10
3.05126
 20
45.0638
 30
0.0
 40
0.0145833
 41
0.0145833
  0
VERTEX
  8
0
 10
3.23236
 20
44.9143
 30
0.0
 40
0.0145833
 41
0.0145833
  0
VERTEX
  8
0
 10
3.38172
 20
44.7332
 30
0.0
 40
0.0145833
 41
0.0145833
  0
VERTEX
  8
0
 10
3.49451
 20
44.5254
 30
0.0
 40
0.0145833
 41
0.0145833
  0
VERTEX
  8
0
 10
3.56581
 20
44.2957
 30
0.0
 40
0.0145833
 41
0.0145833
  0
VERTEX
  8
0
 10
3.59071
 20
44.1108
 30
0.0
 40
0.0145833
 41
0.0145833
  0
VERTEX
  8
0
 10
3.59071
 20
44.0492
 30
0.0
 40
0.0145833
 41
0.0145833
  0
SEQEND
 8
0
  0
POLYLINE
  8
0
 62
     0
 66
     1
 10
0
 20
0
 30
0.0
 70
     1
 40
1.05
 41
1.05
  0
VERTEX
  8
0
 10
15.3636
 20
44.0501
 30
0.0
 40
0.0145833
 41
0.0145833
  0
VERTEX
  8
0
 10
15.3636
 20
43.9885
 30
0.0
 40
0.0145833
 41
0.0145833
  0
VERTEX
  8
0
 10
15.3386
 20
43.8036
 30
0.0
 40
0.0145833
 41
0.0145833
  0
VERTEX
  8
0
 10
15.2674
 20
43.5739
 30
0.0
 40
0.0145833
 41
0.0145833
  0
VERTEX
  8
0
 10
15.1546
 20
43.3661
 30
0.0
 40
0.0145833
 41
0.0145833
  0
VERTEX
  8
0
 10
15.0051
 20
43.185
 30
0.0
 40
0.0145833
 41
0.0145833
  0
VERTEX
  8
0
 10
14.8242
 20
43.0356
 30
0.0
 40
0.0145833
 41
0.0145833
  0
VERTEX
  8
0
 10
14.6163
 20
42.9228
 30
0.0
 40
0.0145833
 41
0.0145833
  0
VERTEX
  8
0
 10
14.3867
 20
42.8515
 30
0.0
 40
0.0145833
 41
0.0145833
  0
VERTEX
  8
0
 10
14.2017
 20
42.8267
 30
0.0
 40
0.0145833
 41
0.0145833
  0
VERTEX
  8
0
 10
14.1401
 20
42.8267
 30
0.0
 40
0.0145833
 41
0.0145833
  0
VERTEX
  8
0
 10
14.0783
 20
42.8267
 30
0.0
 40
0.0145833
 41
0.0145833
  0
VERTEX
  8
0
 10
13.8935
 20
42.8515
 30
0.0
 40
0.0145833
 41
0.0145833
  0
VERTEX
  8
0
 10
13.6638
 20
42.9228
 30
0.0
 40
0.0145833
 41
0.0145833
  0
VERTEX
  8
0
 10
13.456
 20
43.0356
 30
0.0
 40
0.0145833
 41
0.0145833
  0
VERTEX
  8
0
 10
13.2749
 20
43.185
 30
0.0
 40
0.0145833
 41
0.0145833
  0
VERTEX
  8
0
 10
13.1255
 20
43.3661
 30
0.0
 40
0.0145833
 41
0.0145833
  0
VERTEX
  8
0
 10
13.0128
 20
43.5739
 30
0.0
 40
0.0145833
 41
0.0145833
  0
VERTEX
  8
0
 10
12.9415
 20
43.8036
 30
0.0
 40
0.0145833
 41
0.0145833
  0
VERTEX
  8
0
 10
12.9166
 20
43.9885
 30
0.0
 40
0.0145833
 41
0.0145833
  0
VERTEX
  8
0
 10
12.9166
 20
44.0501
 30
0.0
 40
0.0145833
 41
0.0145833
  0
VERTEX
  8
0
 10
12.9166
 20
44.1118
 30
0.0
 40
0.0145833
 41
0.0145833
  0
VERTEX
  8
0
 10
12.9415
 20
44.2967
 30
0.0
 40
0.0145833
 41
0.0145833
  0
VERTEX
  8
0
 10
13.0128
 20
44.5264
 30
0.0
 40
0.0145833
 41
0.0145833
  0
VERTEX
  8
0
 10
13.1255
 20
44.7342
 30
0.0
 40
0.0145833
 41
0.0145833
  0
VERTEX
  8
0
 10
13.2749
 20
44.9153
 30
0.0
 40
0.0145833
 41
0.0145833
  0
VERTEX
  8
0
 10
13.456
 20
45.0646
 30
0.0
 40
0.0145833
 41
0.0145833
  0
VERTEX
  8
0
 10
13.6638
 20
45.1774
 30
0.0
 40
0.0145833
 41
0.0145833
  0
VERTEX
  8
0
 10
13.8935
 20
45.2487
 30
0.0
 40
0.0145833
 41
0.0145833
  0
VERTEX
  8
0
 10
14.0783
 20
45.2736
 30
0.0
 40
0.0145833
 41
0.0145833
  0
VERTEX
  8
0
 10
14.1401
 20
45.2736
 30
0.0
 40
0.0145833
 41
0.0145833
  0
VERTEX
  8
0
 10
14.2017
 20
45.2736
 30
0.0
 40
0.0145833
 41
0.0145833
  0
VERTEX
  8
0
 10
14.3867
 20
45.2487
 30
0.0
 40
0.0145833
 41
0.0145833
  0
VERTEX
  8
0
 10
14.6163
 20
45.1774
 30
0.0
 40
0.0145833
 41
0.0145833
  0
VERTEX
  8
0
 10
14.8242
 20
45.0646
 30
0.0
 40
0.0145833
 41
0.0145833
  0
VERTEX
  8
0
 10
15.0051
 20
44.9153
 30
0.0
 40
0.0145833
 41
0.0145833
  0
VERTEX
  8
0
 10
15.1546
 20
44.7342
 30
0.0
 40
0.0145833
 41
0.0145833
  0
VERTEX
  8
0
 10
15.2674
 20
44.5264
 30
0.0
 40
0.0145833
 41
0.0145833
  0
VERTEX
  8
0
 10
15.3386
 20
44.2967
 30
0.0
 40
0.0145833
 41
0.0145833
  0
VERTEX
  8
0
 10
15.3636
 20
44.1118
 30
0.0
 40
0.0145833
 41
0.0145833
  0
VERTEX
  8
0
 10
15.3636
 20
44.0501
 30
0.0
 40
0.0145833
 41
0.0145833
  0
SEQEND
 8
0
  0
POLYLINE
  8
0
 62
     0
 66
     1
 10
0
 20
0
 30
0.0
 70
     1
 40
1.05
 41
1.05
  0
VERTEX
  8
0
 10
11.7718
 20
45.1165
 30
0.0
 40
0.0145833
 41
0.0145833
  0
VERTEX
  8
0
 10
11.7718
 20
45.0276
 30
0.0
 40
0.0145833
 41
0.0145833
  0
VERTEX
  8
0
 10
11.7538
 20
44.7606
 30
0.0
 40
0.0145833
 41
0.0145833
  0
VERTEX
  8
0
 10
11.701
 20
44.4147
 30
0.0
 40
0.0145833
 41
0.0145833
  0
VERTEX
  8
0
 10
11.6152
 20
44.0808
 30
0.0
 40
0.0145833
 41
0.0145833
  0
VERTEX
  8
0
 10
11.4981
 20
43.761
 30
0.0
 40
0.0145833
 41
0.0145833
  0
VERTEX
  8
0
 10
11.3514
 20
43.4564
 30
0.0
 40
0.0145833
 41
0.0145833
  0
VERTEX
  8
0
 10
11.177
 20
43.1693
 30
0.0
 40
0.0145833
 41
0.0145833
  0
VERTEX
  8
0
 10
10.9765
 20
42.9011
 30
0.0
 40
0.0145833
 41
0.0145833
  0
VERTEX
  8
0
 10
10.7517
 20
42.6538
 30
0.0
 40
0.0145833
 41
0.0145833
  0
VERTEX
  8
0
 10
10.5043
 20
42.429
 30
0.0
 40
0.0145833
 41
0.0145833
  0
VERTEX
  8
0
 10
10.2362
 20
42.2285
 30
0.0
 40
0.0145833
 41
0.0145833
  0
VERTEX
  8
0
 10
9.94906
 20
42.054
 30
0.0
 40
0.0145833
 41
0.0145833
  0
VERTEX
  8
0
 10
9.64458
 20
41.9074
 30
0.0
 40
0.0145833
 41
0.0145833
  0
VERTEX
  8
0
 10
9.3246
 20
41.7903
 30
0.0
 40
0.0145833
 41
0.0145833
  0
VERTEX
  8
0
 10
8.99078
 20
41.7044
 30
0.0
 40
0.0145833
 41
0.0145833
  0
VERTEX
  8
0
 10
8.64497
 20
41.6517
 30
0.0
 40
0.0145833
 41
0.0145833
  0
VERTEX
  8
0
 10
8.37787
 20
41.6336
 30
0.0
 40
0.0145833
 41
0.0145833
  0
VERTEX
  8
0
 10
8.2889
 20
41.6336
 30
0.0
 40
0.0145833
 41
0.0145833
  0
VERTEX
  8
0
 10
8.19987
 20
41.6336
 30
0.0
 40
0.0145833
 41
0.0145833
  0
VERTEX
  8
0
 10
7.93278
 20
41.6517
 30
0.0
 40
0.0145833
 41
0.0145833
  0
VERTEX
  8
0
 10
7.58697
 20
41.7044
 30
0.0
 40
0.0145833
 41
0.0145833
  0
VERTEX
  8
0
 10
7.25315
 20
41.7903
 30
0.0
 40
0.0145833
 41
0.0145833
  0
VERTEX
  8
0
 10
6.93317
 20
41.9074
 30
0.0
 40
0.0145833
 41
0.0145833
  0
VERTEX
  8
0
 10
6.62869
 20
42.054
 30
0.0
 40
0.0145833
 41
0.0145833
  0
VERTEX
  8
0
 10
6.34153
 20
42.2285
 30
0.0
 40
0.0145833
 41
0.0145833
  0
VERTEX
  8
0
 10
6.0734
 20
42.429
 30
0.0
 40
0.0145833
 41
0.0145833
  0
VERTEX
  8
0
 10
5.82607
 20
42.6538
 30
0.0
 40
0.0145833
 41
0.0145833
  0
VERTEX
  8
0
 10
5.60129
 20
42.9011
 30
0.0
 40
0.0145833
 41
0.0145833
  0
VERTEX
  8
0
 10
5.40076
 20
43.1693
 30
0.0
 40
0.0145833
 41
0.0145833
  0
VERTEX
  8
0
 10
5.22635
 20
43.4564
 30
0.0
 40
0.0145833
 41
0.0145833
  0
VERTEX
  8
0
 10
5.07964
 20
43.761
 30
0.0
 40
0.0145833
 41
0.0145833
  0
VERTEX
  8
0
 10
4.96257
 20
44.0808
 30
0.0
 40
0.0145833
 41
0.0145833
  0
VERTEX
  8
0
 10
4.87674
 20
44.4147
 30
0.0
 40
0.0145833
 41
0.0145833
  0
VERTEX
  8
0
 10
4.82394
 20
44.7606
 30
0.0
 40
0.0145833
 41
0.0145833
  0
VERTEX
  8
0
 10
4.80599
 20
45.0276
 30
0.0
 40
0.0145833
 41
0.0145833
  0
VERTEX
  8
0
 10
4.80599
 20
45.1165
 30
0.0
 40
0.0145833
 41
0.0145833
  0
VERTEX
  8
0
 10
4.80599
 20
45.2056
 30
0.0
 40
0.0145833
 41
0.0145833
  0
VERTEX
  8
0
 10
4.82394
 20
45.4728
 30
0.0
 40
0.0145833
 41
0.0145833
  0
VERTEX
  8
0
 10
4.87674
 20
45.8185
 30
0.0
 40
0.0145833
 41
0.0145833
  0
VERTEX
  8
0
 10
4.96257
 20
46.1524
 30
0.0
 40
0.0145833
 41
0.0145833
  0
VERTEX
  8
0
 10
5.07964
 20
46.4724
 30
0.0
 40
0.0145833
 41
0.0145833
  0
VERTEX
  8
0
 10
5.22635
 20
46.7768
 30
0.0
 40
0.0145833
 41
0.0145833
  0
VERTEX
  8
0
 10
5.40076
 20
47.064
 30
0.0
 40
0.0145833
 41
0.0145833
  0
VERTEX
  8
0
 10
5.60129
 20
47.3321
 30
0.0
 40
0.0145833
 41
0.0145833
  0
VERTEX
  8
0
 10
5.82607
 20
47.5794
 30
0.0
 40
0.0145833
 41
0.0145833
  0
VERTEX
  8
0
 10
6.0734
 20
47.8042
 30
0.0
 40
0.0145833
 41
0.0145833
  0
VERTEX
  8
0
 10
6.34153
 20
48.0047
 30
0.0
 40
0.0145833
 41
0.0145833
  0
VERTEX
  8
0
 10
6.62869
 20
48.1792
 30
0.0
 40
0.0145833
 41
0.0145833
  0
VERTEX
  8
0
 10
6.93317
 20
48.3258
 30
0.0
 40
0.0145833
 41
0.0145833
  0
VERTEX
  8
0
 10
7.25315
 20
48.4429
 30
0.0
 40
0.0145833
 41
0.0145833
  0
VERTEX
  8
0
 10
7.58697
 20
48.5288
 30
0.0
 40
0.0145833
 41
0.0145833
  0
VERTEX
  8
0
 10
7.93278
 20
48.5815
 30
0.0
 40
0.0145833
 41
0.0145833
  0
VERTEX
  8
0
 10
8.19987
 20
48.5994
 30
0.0
 40
0.0145833
 41
0.0145833
  0
VERTEX
  8
0
 10
8.2889
 20
48.5994
 30
0.0
 40
0.0145833
 41
0.0145833
  0
VERTEX
  8
0
 10
8.37787
 20
48.5994
 30
0.0
 40
0.0145833
 41
0.0145833
  0
VERTEX
  8
0
 10
8.64497
 20
48.5815
 30
0.0
 40
0.0145833
 41
0.0145833
  0
VERTEX
  8
0
 10
8.99078
 20
48.5288
 30
0.0
 40
0.0145833
 41
0.0145833
  0
VERTEX
  8
0
 10
9.3246
 20
48.4429
 30
0.0
 40
0.0145833
 41
0.0145833
  0
VERTEX
  8
0
 10
9.64458
 20
48.3258
 30
0.0
 40
0.0145833
 41
0.0145833
  0
VERTEX
  8
0
 10
9.94906
 20
48.1792
 30
0.0
 40
0.0145833
 41
0.0145833
  0
VERTEX
  8
0
 10
10.2362
 20
48.0047
 30
0.0
 40
0.0145833
 41
0.0145833
  0
VERTEX
  8
0
 10
10.5043
 20
47.8042
 30
0.0
 40
0.0145833
 41
0.0145833
  0
VERTEX
  8
0
 10
10.7517
 20
47.5794
 30
0.0
 40
0.0145833
 41
0.0145833
  0
VERTEX
  8
0
 10
10.9765
 20
47.3321
 30
0.0
 40
0.0145833
 41
0.0145833
  0
VERTEX
  8
0
 10
11.177
 20
47.064
 30
0.0
 40
0.0145833
 41
0.0145833
  0
VERTEX
  8
0
 10
11.3514
 20
46.7768
 30
0.0
 40
0.0145833
 41
0.0145833
  0
VERTEX
  8
0
 10
11.4981
 20
46.4724
 30
0.0
 40
0.0145833
 41
0.0145833
  0
VERTEX
  8
0
 10
11.6152
 20
46.1524
 30
0.0
 40
0.0145833
 41
0.0145833
  0
VERTEX
  8
0
 10
11.701
 20
45.8185
 30
0.0
 40
0.0145833
 41
0.0145833
  0
VERTEX
  8
0
 10
11.7538
 20
45.4728
 30
0.0
 40
0.0145833
 41
0.0145833
  0
VERTEX
  8
0
 10
11.7718
 20
45.2056
 30
0.0
 40
0.0145833
 41
0.0145833
  0
VERTEX
  8
0
 10
11.7718
 20
45.1165
 30
0.0
 40
0.0145833
 41
0.0145833
  0
SEQEND
 8
0
  0
POLYLINE
  8
0
 62
     0
 66
     1
 10
0
 20
0
 30
0.0
 70
     1
 40
1.05
 41
1.05
  0
VERTEX
  8
0
 10
3.30669
 20
39.36
 30
0.0
 40
0.0145833
 41
0.0145833
  0
VERTEX
  8
0
 10
3.30669
 20
39.3135
 30
0.0
 40
0.0145833
 41
0.0145833
  0
VERTEX
  8
0
 10
3.28788
 20
39.1736
 30
0.0
 40
0.0145833
 41
0.0145833
  0
VERTEX
  8
0
 10
3.234
 20
39.0001
 30
0.0
 40
0.0145833
 41
0.0145833
  0
VERTEX
  8
0
 10
3.14871
 20
38.8431
 30
0.0
 40
0.0145833
 41
0.0145833
  0
VERTEX
  8
0
 10
3.03581
 20
38.7061
 30
0.0
 40
0.0145833
 41
0.0145833
  0
VERTEX
  8
0
 10
2.89893
 20
38.5932
 30
0.0
 40
0.0145833
 41
0.0145833
  0
VERTEX
  8
0
 10
2.74181
 20
38.5079
 30
0.0
 40
0.0145833
 41
0.0145833
  0
VERTEX
  8
0
 10
2.56825
 20
38.4542
 30
0.0
 40
0.0145833
 41
0.0145833
  0
VERTEX
  8
0
 10
2.42844
 20
38.4353
 30
0.0
 40
0.0145833
 41
0.0145833
  0
VERTEX
  8
0
 10
2.38189
 20
38.4353
 30
0.0
 40
0.0145833
 41
0.0145833
  0
VERTEX
  8
0
 10
2.33529
 20
38.4353
 30
0.0
 40
0.0145833
 41
0.0145833
  0
VERTEX
  8
0
 10
2.19547
 20
38.4542
 30
0.0
 40
0.0145833
 41
0.0145833
  0
VERTEX
  8
0
 10
2.02192
 20
38.5079
 30
0.0
 40
0.0145833
 41
0.0145833
  0
VERTEX
  8
0
 10
1.86481
 20
38.5932
 30
0.0
 40
0.0145833
 41
0.0145833
  0
VERTEX
  8
0
 10
1.72792
 20
38.7061
 30
0.0
 40
0.0145833
 41
0.0145833
  0
VERTEX
  8
0
 10
1.61501
 20
38.8431
 30
0.0
 40
0.0145833
 41
0.0145833
  0
VERTEX
  8
0
 10
1.52974
 20
39.0001
 30
0.0
 40
0.0145833
 41
0.0145833
  0
VERTEX
  8
0
 10
1.47586
 20
39.1736
 30
0.0
 40
0.0145833
 41
0.0145833
  0
VERTEX
  8
0
 10
1.45708
 20
39.3135
 30
0.0
 40
0.0145833
 41
0.0145833
  0
VERTEX
  8
0
 10
1.45708
 20
39.36
 30
0.0
 40
0.0145833
 41
0.0145833
  0
VERTEX
  8
0
 10
1.45708
 20
39.4067
 30
0.0
 40
0.0145833
 41
0.0145833
  0
VERTEX
  8
0
 10
1.47586
 20
39.5464
 30
0.0
 40
0.0145833
 41
0.0145833
  0
VERTEX
  8
0
 10
1.52974
 20
39.72
 30
0.0
 40
0.0145833
 41
0.0145833
  0
VERTEX
  8
0
 10
1.61501
 20
39.8771
 30
0.0
 40
0.0145833
 41
0.0145833
  0
VERTEX
  8
0
 10
1.72792
 20
40.014
 30
0.0
 40
0.0145833
 41
0.0145833
  0
VERTEX
  8
0
 10
1.86481
 20
40.1269
 30
0.0
 40
0.0145833
 41
0.0145833
  0
VERTEX
  8
0
 10
2.02192
 20
40.2122
 30
0.0
 40
0.0145833
 41
0.0145833
  0
VERTEX
  8
0
 10
2.19547
 20
40.2661
 30
0.0
 40
0.0145833
 41
0.0145833
  0
VERTEX
  8
0
 10
2.33529
 20
40.2849
 30
0.0
 40
0.0145833
 41
0.0145833
  0
VERTEX
  8
0
 10
2.38189
 20
40.2849
 30
0.0
 40
0.0145833
 41
0.0145833
  0
VERTEX
  8
0
 10
2.42844
 20
40.2849
 30
0.0
 40
0.0145833
 41
0.0145833
  0
VERTEX
  8
0
 10
2.56825
 20
40.2661
 30
0.0
 40
0.0145833
 41
0.0145833
  0
VERTEX
  8
0
 10
2.74181
 20
40.2122
 30
0.0
 40
0.0145833
 41
0.0145833
  0
VERTEX
  8
0
 10
2.89893
 20
40.1269
 30
0.0
 40
0.0145833
 41
0.0145833
  0
VERTEX
  8
0
 10
3.03581
 20
40.014
 30
0.0
 40
0.0145833
 41
0.0145833
  0
VERTEX
  8
0
 10
3.14871
 20
39.8771
 30
0.0
 40
0.0145833
 41
0.0145833
  0
VERTEX
  8
0
 10
3.234
 20
39.72
 30
0.0
 40
0.0145833
 41
0.0145833
  0
VERTEX
  8
0
 10
3.28788
 20
39.5464
 30
0.0
 40
0.0145833
 41
0.0145833
  0
VERTEX
  8
0
 10
3.30669
 20
39.4067
 30
0.0
 40
0.0145833
 41
0.0145833
  0
VERTEX
  8
0
 10
3.30669
 20
39.36
 30
0.0
 40
0.0145833
 41
0.0145833
  0
SEQEND
 8
0
  0
POLYLINE
  8
0
 62
     0
 66
     1
 10
0
 20
0
 30
0.0
 70
     1
 40
1.05
 41
1.05
  0
VERTEX
  8
0
 10
7.2194
 20
39.36
 30
0.0
 40
0.0145833
 41
0.0145833
  0
VERTEX
  8
0
 10
7.2194
 20
39.3135
 30
0.0
 40
0.0145833
 41
0.0145833
  0
VERTEX
  8
0
 10
7.20057
 20
39.1736
 30
0.0
 40
0.0145833
 41
0.0145833
  0
VERTEX
  8
0
 10
7.14671
 20
39.0001
 30
0.0
 40
0.0145833
 41
0.0145833
  0
VERTEX
  8
0
 10
7.06142
 20
38.8431
 30
0.0
 40
0.0145833
 41
0.0145833
  0
VERTEX
  8
0
 10
6.94851
 20
38.7061
 30
0.0
 40
0.0145833
 41
0.0145833
  0
VERTEX
  8
0
 10
6.81164
 20
38.5932
 30
0.0
 40
0.0145833
 41
0.0145833
  0
VERTEX
  8
0
 10
6.65451
 20
38.5079
 30
0.0
 40
0.0145833
 41
0.0145833
  0
VERTEX
  8
0
 10
6.48096
 20
38.4542
 30
0.0
 40
0.0145833
 41
0.0145833
  0
VERTEX
  8
0
 10
6.34115
 20
38.4353
 30
0.0
 40
0.0145833
 41
0.0145833
  0
VERTEX
  8
0
 10
6.2946
 20
38.4353
 30
0.0
 40
0.0145833
 41
0.0145833
  0
VERTEX
  8
0
 10
6.24799
 20
38.4353
 30
0.0
 40
0.0145833
 41
0.0145833
  0
VERTEX
  8
0
 10
6.10818
 20
38.4542
 30
0.0
 40
0.0145833
 41
0.0145833
  0
VERTEX
  8
0
 10
5.93463
 20
38.5079
 30
0.0
 40
0.0145833
 41
0.0145833
  0
VERTEX
  8
0
 10
5.7775
 20
38.5932
 30
0.0
 40
0.0145833
 41
0.0145833
  0
VERTEX
  8
0
 10
5.64063
 20
38.7061
 30
0.0
 40
0.0145833
 41
0.0145833
  0
VERTEX
  8
0
 10
5.52772
 20
38.8431
 30
0.0
 40
0.0145833
 41
0.0145833
  0
VERTEX
  8
0
 10
5.44243
 20
39.0001
 30
0.0
 40
0.0145833
 41
0.0145833
  0
VERTEX
  8
0
 10
5.38857
 20
39.1736
 30
0.0
 40
0.0145833
 41
0.0145833
  0
VERTEX
  8
0
 10
5.36979
 20
39.3135
 30
0.0
 40
0.0145833
 41
0.0145833
  0
VERTEX
  8
0
 10
5.36979
 20
39.36
 30
0.0
 40
0.0145833
 41
0.0145833
  0
VERTEX
  8
0
 10
5.36979
 20
39.4067
 30
0.0
 40
0.0145833
 41
0.0145833
  0
VERTEX
  8
0
 10
5.38857
 20
39.5464
 30
0.0
 40
0.0145833
 41
0.0145833
  0
VERTEX
  8
0
 10
5.44243
 20
39.72
 30
0.0
 40
0.0145833
 41
0.0145833
  0
VERTEX
  8
0
 10
5.52772
 20
39.8771
 30
0.0
 40
0.0145833
 41
0.0145833
  0
VERTEX
  8
0
 10
5.64063
 20
40.014
 30
0.0
 40
0.0145833
 41
0.0145833
  0
VERTEX
  8
0
 10
5.7775
 20
40.1269
 30
0.0
 40
0.0145833
 41
0.0145833
  0
VERTEX
  8
0
 10
5.93463
 20
40.2122
 30
0.0
 40
0.0145833
 41
0.0145833
  0
VERTEX
  8
0
 10
6.10818
 20
40.2661
 30
0.0
 40
0.0145833
 41
0.0145833
  0
VERTEX
  8
0
 10
6.24799
 20
40.2849
 30
0.0
 40
0.0145833
 41
0.0145833
  0
VERTEX
  8
0
 10
6.2946
 20
40.2849
 30
0.0
 40
0.0145833
 41
0.0145833
  0
VERTEX
  8
0
 10
6.34115
 20
40.2849
 30
0.0
 40
0.0145833
 41
0.0145833
  0
VERTEX
  8
0
 10
6.48096
 20
40.2661
 30
0.0
 40
0.0145833
 41
0.0145833
  0
VERTEX
  8
0
 10
6.65451
 20
40.2122
 30
0.0
 40
0.0145833
 41
0.0145833
  0
VERTEX
  8
0
 10
6.81164
 20
40.1269
 30
0.0
 40
0.0145833
 41
0.0145833
  0
VERTEX
  8
0
 10
6.94851
 20
40.014
 30
0.0
 40
0.0145833
 41
0.0145833
  0
VERTEX
  8
0
 10
7.06142
 20
39.8771
 30
0.0
 40
0.0145833
 41
0.0145833
  0
VERTEX
  8
0
 10
7.14671
 20
39.72
 30
0.0
 40
0.0145833
 41
0.0145833
  0
VERTEX
  8
0
 10
7.20057
 20
39.5464
 30
0.0
 40
0.0145833
 41
0.0145833
  0
VERTEX
  8
0
 10
7.2194
 20
39.4067
 30
0.0
 40
0.0145833
 41
0.0145833
  0
VERTEX
  8
0
 10
7.2194
 20
39.36
 30
0.0
 40
0.0145833
 41
0.0145833
  0
SEQEND
 8
0
  0
POLYLINE
  8
0
 62
     0
 66
     1
 10
0
 20
0
 30
0.0
 70
     1
 40
1.05
 41
1.05
  0
VERTEX
  8
0
 10
11.1194
 20
39.36
 30
0.0
 40
0.0145833
 41
0.0145833
  0
VERTEX
  8
0
 10
11.1194
 20
39.3135
 30
0.0
 40
0.0145833
 41
0.0145833
  0
VERTEX
  8
0
 10
11.1005
 20
39.1736
 30
0.0
 40
0.0145833
 41
0.0145833
  0
VERTEX
  8
0
 10
11.0467
 20
39.0001
 30
0.0
 40
0.0145833
 41
0.0145833
  0
VERTEX
  8
0
 10
10.9614
 20
38.8431
 30
0.0
 40
0.0145833
 41
0.0145833
  0
VERTEX
  8
0
 10
10.8485
 20
38.7061
 30
0.0
 40
0.0145833
 41
0.0145833
  0
VERTEX
  8
0
 10
10.7116
 20
38.5932
 30
0.0
 40
0.0145833
 41
0.0145833
  0
VERTEX
  8
0
 10
10.5545
 20
38.5079
 30
0.0
 40
0.0145833
 41
0.0145833
  0
VERTEX
  8
0
 10
10.381
 20
38.4542
 30
0.0
 40
0.0145833
 41
0.0145833
  0
VERTEX
  8
0
 10
10.2412
 20
38.4353
 30
0.0
 40
0.0145833
 41
0.0145833
  0
VERTEX
  8
0
 10
10.1946
 20
38.4353
 30
0.0
 40
0.0145833
 41
0.0145833
  0
VERTEX
  8
0
 10
10.148
 20
38.4353
 30
0.0
 40
0.0145833
 41
0.0145833
  0
VERTEX
  8
0
 10
10.0082
 20
38.4542
 30
0.0
 40
0.0145833
 41
0.0145833
  0
VERTEX
  8
0
 10
9.83464
 20
38.5079
 30
0.0
 40
0.0145833
 41
0.0145833
  0
VERTEX
  8
0
 10
9.67751
 20
38.5932
 30
0.0
 40
0.0145833
 41
0.0145833
  0
VERTEX
  8
0
 10
9.54064
 20
38.7061
 30
0.0
 40
0.0145833
 41
0.0145833
  0
VERTEX
  8
0
 10
9.42774
 20
38.8431
 30
0.0
 40
0.0145833
 41
0.0145833
  0
VERTEX
  8
0
 10
9.34244
 20
39.0001
 30
0.0
 40
0.0145833
 41
0.0145833
  0
VERTEX
  8
0
 10
9.28857
 20
39.1736
 30
0.0
 40
0.0145833
 41
0.0145833
  0
VERTEX
  8
0
 10
9.26981
 20
39.3135
 30
0.0
 40
0.0145833
 41
0.0145833
  0
VERTEX
  8
0
 10
9.26981
 20
39.36
 30
0.0
 40
0.0145833
 41
0.0145833
  0
VERTEX
  8
0
 10
9.26981
 20
39.4067
 30
0.0
 40
0.0145833
 41
0.0145833
  0
VERTEX
  8
0
 10
9.28857
 20
39.5464
 30
0.0
 40
0.0145833
 41
0.0145833
  0
VERTEX
  8
0
 10
9.34244
 20
39.72
 30
0.0
 40
0.0145833
 41
0.0145833
  0
VERTEX
  8
0
 10
9.42774
 20
39.8771
 30
0.0
 40
0.0145833
 41
0.0145833
  0
VERTEX
  8
0
 10
9.54064
 20
40.014
 30
0.0
 40
0.0145833
 41
0.0145833
  0
VERTEX
  8
0
 10
9.67751
 20
40.1269
 30
0.0
 40
0.0145833
 41
0.0145833
  0
VERTEX
  8
0
 10
9.83464
 20
40.2122
 30
0.0
 40
0.0145833
 41
0.0145833
  0
VERTEX
  8
0
 10
10.0082
 20
40.2661
 30
0.0
 40
0.0145833
 41
0.0145833
  0
VERTEX
  8
0
 10
10.148
 20
40.2849
 30
0.0
 40
0.0145833
 41
0.0145833
  0
VERTEX
  8
0
 10
10.1946
 20
40.2849
 30
0.0
 40
0.0145833
 41
0.0145833
  0
VERTEX
  8
0
 10
10.2412
 20
40.2849
 30
0.0
 40
0.0145833
 41
0.0145833
  0
VERTEX
  8
0
 10
10.381
 20
40.2661
 30
0.0
 40
0.0145833
 41
0.0145833
  0
VERTEX
  8
0
 10
10.5545
 20
40.2122
 30
0.0
 40
0.0145833
 41
0.0145833
  0
VERTEX
  8
0
 10
10.7116
 20
40.1269
 30
0.0
 40
0.0145833
 41
0.0145833
  0
VERTEX
  8
0
 10
10.8485
 20
40.014
 30
0.0
 40
0.0145833
 41
0.0145833
  0
VERTEX
  8
0
 10
10.9614
 20
39.8771
 30
0.0
 40
0.0145833
 41
0.0145833
  0
VERTEX
  8
0
 10
11.0467
 20
39.72
 30
0.0
 40
0.0145833
 41
0.0145833
  0
VERTEX
  8
0
 10
11.1005
 20
39.5464
 30
0.0
 40
0.0145833
 41
0.0145833
  0
VERTEX
  8
0
 10
11.1194
 20
39.4067
 30
0.0
 40
0.0145833
 41
0.0145833
  0
VERTEX
  8
0
 10
11.1194
 20
39.36
 30
0.0
 40
0.0145833
 41
0.0145833
  0
SEQEND
 8
0
  0
POLYLINE
  8
0
 62
     0
 66
     1
 10
0
 20
0
 30
0.0
 70
     1
 40
1.05
 41
1.05
  0
VERTEX
  8
0
 10
15.0351
 20
39.36
 30
0.0
 40
0.0145833
 41
0.0145833
  0
VERTEX
  8
0
 10
15.0351
 20
39.3135
 30
0.0
 40
0.0145833
 41
0.0145833
  0
VERTEX
  8
0
 10
15.0163
 20
39.1736
 30
0.0
 40
0.0145833
 41
0.0145833
  0
VERTEX
  8
0
 10
14.9624
 20
39.0001
 30
0.0
 40
0.0145833
 41
0.0145833
  0
VERTEX
  8
0
 10
14.8771
 20
38.8431
 30
0.0
 40
0.0145833
 41
0.0145833
  0
VERTEX
  8
0
 10
14.7642
 20
38.7061
 30
0.0
 40
0.0145833
 41
0.0145833
  0
VERTEX
  8
0
 10
14.6274
 20
38.5932
 30
0.0
 40
0.0145833
 41
0.0145833
  0
VERTEX
  8
0
 10
14.4703
 20
38.5079
 30
0.0
 40
0.0145833
 41
0.0145833
  0
VERTEX
  8
0
 10
14.2967
 20
38.4542
 30
0.0
 40
0.0145833
 41
0.0145833
  0
VERTEX
  8
0
 10
14.1568
 20
38.4353
 30
0.0
 40
0.0145833
 41
0.0145833
  0
VERTEX
  8
0
 10
14.1103
 20
38.4353
 30
0.0
 40
0.0145833
 41
0.0145833
  0
VERTEX
  8
0
 10
14.0638
 20
38.4353
 30
0.0
 40
0.0145833
 41
0.0145833
  0
VERTEX
  8
0
 10
13.9239
 20
38.4542
 30
0.0
 40
0.0145833
 41
0.0145833
  0
VERTEX
  8
0
 10
13.7503
 20
38.5079
 30
0.0
 40
0.0145833
 41
0.0145833
  0
VERTEX
  8
0
 10
13.5932
 20
38.5932
 30
0.0
 40
0.0145833
 41
0.0145833
  0
VERTEX
  8
0
 10
13.4564
 20
38.7061
 30
0.0
 40
0.0145833
 41
0.0145833
  0
VERTEX
  8
0
 10
13.3434
 20
38.8431
 30
0.0
 40
0.0145833
 41
0.0145833
  0
VERTEX
  8
0
 10
13.2582
 20
39.0001
 30
0.0
 40
0.0145833
 41
0.0145833
  0
VERTEX
  8
0
 10
13.2043
 20
39.1736
 30
0.0
 40
0.0145833
 41
0.0145833
  0
VERTEX
  8
0
 10
13.1855
 20
39.3135
 30
0.0
 40
0.0145833
 41
0.0145833
  0
VERTEX
  8
0
 10
13.1855
 20
39.36
 30
0.0
 40
0.0145833
 41
0.0145833
  0
VERTEX
  8
0
 10
13.1855
 20
39.4067
 30
0.0
 40
0.0145833
 41
0.0145833
  0
VERTEX
  8
0
 10
13.2043
 20
39.5464
 30
0.0
 40
0.0145833
 41
0.0145833
  0
VERTEX
  8
0
 10
13.2582
 20
39.72
 30
0.0
 40
0.0145833
 41
0.0145833
  0
VERTEX
  8
0
 10
13.3434
 20
39.8771
 30
0.0
 40
0.0145833
 41
0.0145833
  0
VERTEX
  8
0
 10
13.4564
 20
40.014
 30
0.0
 40
0.0145833
 41
0.0145833
  0
VERTEX
  8
0
 10
13.5932
 20
40.1269
 30
0.0
 40
0.0145833
 41
0.0145833
  0
VERTEX
  8
0
 10
13.7503
 20
40.2122
 30
0.0
 40
0.0145833
 41
0.0145833
  0
VERTEX
  8
0
 10
13.9239
 20
40.2661
 30
0.0
 40
0.0145833
 41
0.0145833
  0
VERTEX
  8
0
 10
14.0638
 20
40.2849
 30
0.0
 40
0.0145833
 41
0.0145833
  0
VERTEX
  8
0
 10
14.1103
 20
40.2849
 30
0.0
 40
0.0145833
 41
0.0145833
  0
VERTEX
  8
0
 10
14.1568
 20
40.2849
 30
0.0
 40
0.0145833
 41
0.0145833
  0
VERTEX
  8
0
 10
14.2967
 20
40.2661
 30
0.0
 40
0.0145833
 41
0.0145833
  0
VERTEX
  8
0
 10
14.4703
 20
40.2122
 30
0.0
 40
0.0145833
 41
0.0145833
  0
VERTEX
  8
0
 10
14.6274
 20
40.1269
 30
0.0
 40
0.0145833
 41
0.0145833
  0
VERTEX
  8
0
 10
14.7642
 20
40.014
 30
0.0
 40
0.0145833
 41
0.0145833
  0
VERTEX
  8
0
 10
14.8771
 20
39.8771
 30
0.0
 40
0.0145833
 41
0.0145833
  0
VERTEX
  8
0
 10
14.9624
 20
39.72
 30
0.0
 40
0.0145833
 41
0.0145833
  0
VERTEX
  8
0
 10
15.0163
 20
39.5464
 30
0.0
 40
0.0145833
 41
0.0145833
  0
VERTEX
  8
0
 10
15.0351
 20
39.4067
 30
0.0
 40
0.0145833
 41
0.0145833
  0
VERTEX
  8
0
 10
15.0351
 20
39.36
 30
0.0
 40
0.0145833
 41
0.0145833
  0
SEQEND
 8
0
  0
POLYLINE
  8
0
 62
     0
 66
     1
 10
0
 20
0
 30
0.0
 70
     1
 40
1.05
 41
1.05
  0
VERTEX
  8
0
 10
7.45074
 20
33.5201
 30
0.0
 40
0.0145833
 41
0.0145833
  0
VERTEX
  8
0
 10
7.45074
 20
33.4579
 30
0.0
 40
0.0145833
 41
0.0145833
  0
VERTEX
  8
0
 10
7.42563
 20
33.2711
 30
0.0
 40
0.0145833
 41
0.0145833
  0
VERTEX
  8
0
 10
7.35357
 20
33.0392
 30
0.0
 40
0.0145833
 41
0.0145833
  0
VERTEX
  8
0
 10
7.23964
 20
32.8292
 30
0.0
 40
0.0145833
 41
0.0145833
  0
VERTEX
  8
0
 10
7.08871
 20
32.6463
 30
0.0
 40
0.0145833
 41
0.0145833
  0
VERTEX
  8
0
 10
6.90582
 20
32.4953
 30
0.0
 40
0.0145833
 41
0.0145833
  0
VERTEX
  8
0
 10
6.69586
 20
32.3814
 30
0.0
 40
0.0145833
 41
0.0145833
  0
VERTEX
  8
0
 10
6.46386
 20
32.3093
 30
0.0
 40
0.0145833
 41
0.0145833
  0
VERTEX
  8
0
 10
6.27707
 20
32.2842
 30
0.0
 40
0.0145833
 41
0.0145833
  0
VERTEX
  8
0
 10
6.21485
 20
32.2842
 30
0.0
 40
0.0145833
 41
0.0145833
  0
VERTEX
  8
0
 10
6.15256
 20
32.2842
 30
0.0
 40
0.0145833
 41
0.0145833
  0
VERTEX
  8
0
 10
5.96576
 20
32.3093
 30
0.0
 40
0.0145833
 41
0.0145833
  0
VERTEX
  8
0
 10
5.73378
 20
32.3814
 30
0.0
 40
0.0145833
 41
0.0145833
  0
VERTEX
  8
0
 10
5.52382
 20
32.4953
 30
0.0
 40
0.0145833
 41
0.0145833
  0
VERTEX
  8
0
 10
5.34093
 20
32.6463
 30
0.0
 40
0.0145833
 41
0.0145833
  0
VERTEX
  8
0
 10
5.19
 20
32.8292
 30
0.0
 40
0.0145833
 41
0.0145833
  0
VERTEX
  8
0
 10
5.07607
 20
33.0392
 30
0.0
 40
0.0145833
 41
0.0145833
  0
VERTEX
  8
0
 10
5.00401
 20
33.2711
 30
0.0
 40
0.0145833
 41
0.0145833
  0
VERTEX
  8
0
 10
4.97894
 20
33.4579
 30
0.0
 40
0.0145833
 41
0.0145833
  0
VERTEX
  8
0
 10
4.97894
 20
33.5201
 30
0.0
 40
0.0145833
 41
0.0145833
  0
VERTEX
  8
0
 10
4.97894
 20
33.5824
 30
0.0
 40
0.0145833
 41
0.0145833
  0
VERTEX
  8
0
 10
5.00401
 20
33.7693
 30
0.0
 40
0.0145833
 41
0.0145833
  0
VERTEX
  8
0
 10
5.07607
 20
34.0013
 30
0.0
 40
0.0145833
 41
0.0145833
  0
VERTEX
  8
0
 10
5.19
 20
34.2112
 30
0.0
 40
0.0145833
 41
0.0145833
  0
VERTEX
  8
0
 10
5.34093
 20
34.3942
 30
0.0
 40
0.0145833
 41
0.0145833
  0
VERTEX
  8
0
 10
5.52382
 20
34.545
 30
0.0
 40
0.0145833
 41
0.0145833
  0
VERTEX
  8
0
 10
5.73378
 20
34.659
 30
0.0
 40
0.0145833
 41
0.0145833
  0
VERTEX
  8
0
 10
5.96576
 20
34.731
 30
0.0
 40
0.0145833
 41
0.0145833
  0
VERTEX
  8
0
 10
6.15256
 20
34.7561
 30
0.0
 40
0.0145833
 41
0.0145833
  0
VERTEX
  8
0
 10
6.21485
 20
34.7561
 30
0.0
 40
0.0145833
 41
0.0145833
  0
VERTEX
  8
0
 10
6.27707
 20
34.7561
 30
0.0
 40
0.0145833
 41
0.0145833
  0
VERTEX
  8
0
 10
6.46386
 20
34.731
 30
0.0
 40
0.0145833
 41
0.0145833
  0
VERTEX
  8
0
 10
6.69586
 20
34.659
 30
0.0
 40
0.0145833
 41
0.0145833
  0
VERTEX
  8
0
 10
6.90582
 20
34.545
 30
0.0
 40
0.0145833
 41
0.0145833
  0
VERTEX
  8
0
 10
7.08871
 20
34.3942
 30
0.0
 40
0.0145833
 41
0.0145833
  0
VERTEX
  8
0
 10
7.23964
 20
34.2112
 30
0.0
 40
0.0145833
 41
0.0145833
  0
VERTEX
  8
0
 10
7.35357
 20
34.0013
 30
0.0
 40
0.0145833
 41
0.0145833
  0
VERTEX
  8
0
 10
7.42563
 20
33.7693
 30
0.0
 40
0.0145833
 41
0.0145833
  0
VERTEX
  8
0
 10
7.45074
 20
33.5824
 30
0.0
 40
0.0145833
 41
0.0145833
  0
VERTEX
  8
0
 10
7.45074
 20
33.5201
 30
0.0
 40
0.0145833
 41
0.0145833
  0
SEQEND
 8
0
  0
POLYLINE
  8
0
 62
     0
 66
     1
 10
0
 20
0
 30
0.0
 70
     1
 40
1.05
 41
1.05
  0
VERTEX
  8
0
 10
11.5265
 20
33.5201
 30
0.0
 40
0.0145833
 41
0.0145833
  0
VERTEX
  8
0
 10
11.5265
 20
33.4579
 30
0.0
 40
0.0145833
 41
0.0145833
  0
VERTEX
  8
0
 10
11.5014
 20
33.2711
 30
0.0
 40
0.0145833
 41
0.0145833
  0
VERTEX
  8
0
 10
11.4293
 20
33.0392
 30
0.0
 40
0.0145833
 41
0.0145833
  0
VERTEX
  8
0
 10
11.3154
 20
32.8292
 30
0.0
 40
0.0145833
 41
0.0145833
  0
VERTEX
  8
0
 10
11.1644
 20
32.6463
 30
0.0
 40
0.0145833
 41
0.0145833
  0
VERTEX
  8
0
 10
10.9816
 20
32.4953
 30
0.0
 40
0.0145833
 41
0.0145833
  0
VERTEX
  8
0
 10
10.7716
 20
32.3814
 30
0.0
 40
0.0145833
 41
0.0145833
  0
VERTEX
  8
0
 10
10.5396
 20
32.3093
 30
0.0
 40
0.0145833
 41
0.0145833
  0
VERTEX
  8
0
 10
10.3528
 20
32.2842
 30
0.0
 40
0.0145833
 41
0.0145833
  0
VERTEX
  8
0
 10
10.2906
 20
32.2842
 30
0.0
 40
0.0145833
 41
0.0145833
  0
VERTEX
  8
0
 10
10.2283
 20
32.2842
 30
0.0
 40
0.0145833
 41
0.0145833
  0
VERTEX
  8
0
 10
10.0414
 20
32.3093
 30
0.0
 40
0.0145833
 41
0.0145833
  0
VERTEX
  8
0
 10
9.80946
 20
32.3814
 30
0.0
 40
0.0145833
 41
0.0145833
  0
VERTEX
  8
0
 10
9.5995
 20
32.4953
 30
0.0
 40
0.0145833
 41
0.0145833
  0
VERTEX
  8
0
 10
9.41661
 20
32.6463
 30
0.0
 40
0.0145833
 41
0.0145833
  0
VERTEX
  8
0
 10
9.26568
 20
32.8292
 30
0.0
 40
0.0145833
 41
0.0145833
  0
VERTEX
  8
0
 10
9.15175
 20
33.0392
 30
0.0
 40
0.0145833
 41
0.0145833
  0
VERTEX
  8
0
 10
9.07969
 20
33.2711
 30
0.0
 40
0.0145833
 41
0.0145833
  0
VERTEX
  8
0
 10
9.05464
 20
33.4579
 30
0.0
 40
0.0145833
 41
0.0145833
  0
VERTEX
  8
0
 10
9.05464
 20
33.5201
 30
0.0
 40
0.0145833
 41
0.0145833
  0
VERTEX
  8
0
 10
9.05464
 20
33.5824
 30
0.0
 40
0.0145833
 41
0.0145833
  0
VERTEX
  8
0
 10
9.07969
 20
33.7693
 30
0.0
 40
0.0145833
 41
0.0145833
  0
VERTEX
  8
0
 10
9.15175
 20
34.0013
 30
0.0
 40
0.0145833
 41
0.0145833
  0
VERTEX
  8
0
 10
9.26568
 20
34.2112
 30
0.0
 40
0.0145833
 41
0.0145833
  0
VERTEX
  8
0
 10
9.41661
 20
34.3942
 30
0.0
 40
0.0145833
 41
0.0145833
  0
VERTEX
  8
0
 10
9.5995
 20
34.545
 30
0.0
 40
0.0145833
 41
0.0145833
  0
VERTEX
  8
0
 10
9.80946
 20
34.659
 30
0.0
 40
0.0145833
 41
0.0145833
  0
VERTEX
  8
0
 10
10.0414
 20
34.731
 30
0.0
 40
0.0145833
 41
0.0145833
  0
VERTEX
  8
0
 10
10.2283
 20
34.7561
 30
0.0
 40
0.0145833
 41
0.0145833
  0
VERTEX
  8
0
 10
10.2906
 20
34.7561
 30
0.0
 40
0.0145833
 41
0.0145833
  0
VERTEX
  8
0
 10
10.3528
 20
34.7561
 30
0.0
 40
0.0145833
 41
0.0145833
  0
VERTEX
  8
0
 10
10.5396
 20
34.731
 30
0.0
 40
0.0145833
 41
0.0145833
  0
VERTEX
  8
0
 10
10.7716
 20
34.659
 30
0.0
 40
0.0145833
 41
0.0145833
  0
VERTEX
  8
0
 10
10.9816
 20
34.545
 30
0.0
 40
0.0145833
 41
0.0145833
  0
VERTEX
  8
0
 10
11.1644
 20
34.3942
 30
0.0
 40
0.0145833
 41
0.0145833
  0
VERTEX
  8
0
 10
11.3154
 20
34.2112
 30
0.0
 40
0.0145833
 41
0.0145833
  0
VERTEX
  8
0
 10
11.4293
 20
34.0013
 30
0.0
 40
0.0145833
 41
0.0145833
  0
VERTEX
  8
0
 10
11.5014
 20
33.7693
 30
0.0
 40
0.0145833
 41
0.0145833
  0
VERTEX
  8
0
 10
11.5265
 20
33.5824
 30
0.0
 40
0.0145833
 41
0.0145833
  0
VERTEX
  8
0
 10
11.5265
 20
33.5201
 30
0.0
 40
0.0145833
 41
0.0145833
  0
SEQEND
 8
0
  0
POLYLINE
  8
0
 62
     0
 66
     1
 10
0
 20
0
 30
0.0
 70
     1
 40
1.05
 41
1.05
  0
VERTEX
  8
0
 10
15.5372
 20
33.5201
 30
0.0
 40
0.0145833
 41
0.0145833
  0
VERTEX
  8
0
 10
15.5372
 20
33.4579
 30
0.0
 40
0.0145833
 41
0.0145833
  0
VERTEX
  8
0
 10
15.5121
 20
33.2711
 30
0.0
 40
0.0145833
 41
0.0145833
  0
VERTEX
  8
0
 10
15.44
 20
33.0392
 30
0.0
 40
0.0145833
 41
0.0145833
  0
VERTEX
  8
0
 10
15.3261
 20
32.8292
 30
0.0
 40
0.0145833
 41
0.0145833
  0
VERTEX
  8
0
 10
15.1751
 20
32.6463
 30
0.0
 40
0.0145833
 41
0.0145833
  0
VERTEX
  8
0
 10
14.9922
 20
32.4953
 30
0.0
 40
0.0145833
 41
0.0145833
  0
VERTEX
  8
0
 10
14.7822
 20
32.3814
 30
0.0
 40
0.0145833
 41
0.0145833
  0
VERTEX
  8
0
 10
14.5503
 20
32.3093
 30
0.0
 40
0.0145833
 41
0.0145833
  0
VERTEX
  8
0
 10
14.3635
 20
32.2842
 30
0.0
 40
0.0145833
 41
0.0145833
  0
VERTEX
  8
0
 10
14.3012
 20
32.2842
 30
0.0
 40
0.0145833
 41
0.0145833
  0
VERTEX
  8
0
 10
14.239
 20
32.2842
 30
0.0
 40
0.0145833
 41
0.0145833
  0
VERTEX
  8
0
 10
14.0522
 20
32.3093
 30
0.0
 40
0.0145833
 41
0.0145833
  0
VERTEX
  8
0
 10
13.8202
 20
32.3814
 30
0.0
 40
0.0145833
 41
0.0145833
  0
VERTEX
  8
0
 10
13.6102
 20
32.4953
 30
0.0
 40
0.0145833
 41
0.0145833
  0
VERTEX
  8
0
 10
13.4274
 20
32.6463
 30
0.0
 40
0.0145833
 41
0.0145833
  0
VERTEX
  8
0
 10
13.2764
 20
32.8292
 30
0.0
 40
0.0145833
 41
0.0145833
  0
VERTEX
  8
0
 10
13.1625
 20
33.0392
 30
0.0
 40
0.0145833
 41
0.0145833
  0
VERTEX
  8
0
 10
13.0904
 20
33.2711
 30
0.0
 40
0.0145833
 41
0.0145833
  0
VERTEX
  8
0
 10
13.0654
 20
33.4579
 30
0.0
 40
0.0145833
 41
0.0145833
  0
VERTEX
  8
0
 10
13.0654
 20
33.5201
 30
0.0
 40
0.0145833
 41
0.0145833
  0
VERTEX
  8
0
 10
13.0654
 20
33.5824
 30
0.0
 40
0.0145833
 41
0.0145833
  0
VERTEX
  8
0
 10
13.0904
 20
33.7693
 30
0.0
 40
0.0145833
 41
0.0145833
  0
VERTEX
  8
0
 10
13.1625
 20
34.0013
 30
0.0
 40
0.0145833
 41
0.0145833
  0
VERTEX
  8
0
 10
13.2764
 20
34.2112
 30
0.0
 40
0.0145833
 41
0.0145833
  0
VERTEX
  8
0
 10
13.4274
 20
34.3942
 30
0.0
 40
0.0145833
 41
0.0145833
  0
VERTEX
  8
0
 10
13.6102
 20
34.545
 30
0.0
 40
0.0145833
 41
0.0145833
  0
VERTEX
  8
0
 10
13.8202
 20
34.659
 30
0.0
 40
0.0145833
 41
0.0145833
  0
VERTEX
  8
0
 10
14.0522
 20
34.731
 30
0.0
 40
0.0145833
 41
0.0145833
  0
VERTEX
  8
0
 10
14.239
 20
34.7561
 30
0.0
 40
0.0145833
 41
0.0145833
  0
VERTEX
  8
0
 10
14.3012
 20
34.7561
 30
0.0
 40
0.0145833
 41
0.0145833
  0
VERTEX
  8
0
 10
14.3635
 20
34.7561
 30
0.0
 40
0.0145833
 41
0.0145833
  0
VERTEX
  8
0
 10
14.5503
 20
34.731
 30
0.0
 40
0.0145833
 41
0.0145833
  0
VERTEX
  8
0
 10
14.7822
 20
34.659
 30
0.0
 40
0.0145833
 41
0.0145833
  0
VERTEX
  8
0
 10
14.9922
 20
34.545
 30
0.0
 40
0.0145833
 41
0.0145833
  0
VERTEX
  8
0
 10
15.1751
 20
34.3942
 30
0.0
 40
0.0145833
 41
0.0145833
  0
VERTEX
  8
0
 10
15.3261
 20
34.2112
 30
0.0
 40
0.0145833
 41
0.0145833
  0
VERTEX
  8
0
 10
15.44
 20
34.0013
 30
0.0
 40
0.0145833
 41
0.0145833
  0
VERTEX
  8
0
 10
15.5121
 20
33.7693
 30
0.0
 40
0.0145833
 41
0.0145833
  0
VERTEX
  8
0
 10
15.5372
 20
33.5824
 30
0.0
 40
0.0145833
 41
0.0145833
  0
VERTEX
  8
0
 10
15.5372
 20
33.5201
 30
0.0
 40
0.0145833
 41
0.0145833
  0
SEQEND
 8
0
  0
POLYLINE
  8
0
 62
     0
 66
     1
 10
0
 20
0
 30
0.0
 70
     1
 40
1.05
 41
1.05
  0
VERTEX
  8
0
 10
3.47217
 20
26.9533
 30
0.0
 40
0.0145833
 41
0.0145833
  0
VERTEX
  8
0
 10
3.47217
 20
26.8911
 30
0.0
 40
0.0145833
 41
0.0145833
  0
VERTEX
  8
0
 10
3.44706
 20
26.7043
 30
0.0
 40
0.0145833
 41
0.0145833
  0
VERTEX
  8
0
 10
3.375
 20
26.4724
 30
0.0
 40
0.0145833
 41
0.0145833
  0
VERTEX
  8
0
 10
3.26107
 20
26.2624
 30
0.0
 40
0.0145833
 41
0.0145833
  0
VERTEX
  8
0
 10
3.11014
 20
26.0796
 30
0.0
 40
0.0145833
 41
0.0145833
  0
VERTEX
  8
0
 10
2.92725
 20
25.9286
 30
0.0
 40
0.0145833
 41
0.0145833
  0
VERTEX
  8
0
 10
2.71729
 20
25.8147
 30
0.0
 40
0.0145833
 41
0.0145833
  0
VERTEX
  8
0
 10
2.48529
 20
25.7426
 30
0.0
 40
0.0145833
 41
0.0145833
  0
VERTEX
  8
0
 10
2.2985
 20
25.7175
 30
0.0
 40
0.0145833
 41
0.0145833
  0
VERTEX
  8
0
 10
2.23628
 20
25.7175
 30
0.0
 40
0.0145833
 41
0.0145833
  0
VERTEX
  8
0
 10
2.17399
 20
25.7175
 30
0.0
 40
0.0145833
 41
0.0145833
  0
VERTEX
  8
0
 10
1.98719
 20
25.7426
 30
0.0
 40
0.0145833
 41
0.0145833
  0
VERTEX
  8
0
 10
1.75521
 20
25.8147
 30
0.0
 40
0.0145833
 41
0.0145833
  0
VERTEX
  8
0
 10
1.54525
 20
25.9286
 30
0.0
 40
0.0145833
 41
0.0145833
  0
VERTEX
  8
0
 10
1.36236
 20
26.0796
 30
0.0
 40
0.0145833
 41
0.0145833
  0
VERTEX
  8
0
 10
1.21143
 20
26.2624
 30
0.0
 40
0.0145833
 41
0.0145833
  0
VERTEX
  8
0
 10
1.09749
 20
26.4724
 30
0.0
 40
0.0145833
 41
0.0145833
  0
VERTEX
  8
0
 10
1.02544
 20
26.7043
 30
0.0
 40
0.0145833
 41
0.0145833
  0
VERTEX
  8
0
 10
1.00038
 20
26.8911
 30
0.0
 40
0.0145833
 41
0.0145833
  0
VERTEX
  8
0
 10
1.00038
 20
26.9533
 30
0.0
 40
0.0145833
 41
0.0145833
  0
VERTEX
  8
0
 10
1.00038
 20
27.0157
 30
0.0
 40
0.0145833
 41
0.0145833
  0
VERTEX
  8
0
 10
1.02544
 20
27.2025
 30
0.0
 40
0.0145833
 41
0.0145833
  0
VERTEX
  8
0
 10
1.09749
 20
27.4344
 30
0.0
 40
0.0145833
 41
0.0145833
  0
VERTEX
  8
0
 10
1.21143
 20
27.6444
 30
0.0
 40
0.0145833
 41
0.0145833
  0
VERTEX
  8
0
 10
1.36236
 20
27.8274
 30
0.0
 40
0.0145833
 41
0.0145833
  0
VERTEX
  8
0
 10
1.54525
 20
27.9782
 30
0.0
 40
0.0145833
 41
0.0145833
  0
VERTEX
  8
0
 10
1.75521
 20
28.0922
 30
0.0
 40
0.0145833
 41
0.0145833
  0
VERTEX
  8
0
 10
1.98719
 20
28.1642
 30
0.0
 40
0.0145833
 41
0.0145833
  0
VERTEX
  8
0
 10
2.17399
 20
28.1893
 30
0.0
 40
0.0145833
 41
0.0145833
  0
VERTEX
  8
0
 10
2.23628
 20
28.1893
 30
0.0
 40
0.0145833
 41
0.0145833
  0
VERTEX
  8
0
 10
2.2985
 20
28.1893
 30
0.0
 40
0.0145833
 41
0.0145833
  0
VERTEX
  8
0
 10
2.48529
 20
28.1642
 30
0.0
 40
0.0145833
 41
0.0145833
  0
VERTEX
  8
0
 10
2.71729
 20
28.0922
 30
0.0
 40
0.0145833
 41
0.0145833
  0
VERTEX
  8
0
 10
2.92725
 20
27.9782
 30
0.0
 40
0.0145833
 41
0.0145833
  0
VERTEX
  8
0
 10
3.11014
 20
27.8274
 30
0.0
 40
0.0145833
 41
0.0145833
  0
VERTEX
  8
0
 10
3.26107
 20
27.6444
 30
0.0
 40
0.0145833
 41
0.0145833
  0
VERTEX
  8
0
 10
3.375
 20
27.4344
 30
0.0
 40
0.0145833
 41
0.0145833
  0
VERTEX
  8
0
 10
3.44706
 20
27.2025
 30
0.0
 40
0.0145833
 41
0.0145833
  0
VERTEX
  8
0
 10
3.47217
 20
27.0157
 30
0.0
 40
0.0145833
 41
0.0145833
  0
VERTEX
  8
0
 10
3.47217
 20
26.9533
 30
0.0
 40
0.0145833
 41
0.0145833
  0
SEQEND
 8
0
  0
POLYLINE
  8
0
 62
     0
 66
     1
 10
0
 20
0
 30
0.0
 70
     1
 40
1.05
 41
1.05
  0
VERTEX
  8
0
 10
7.45074
 20
26.9533
 30
0.0
 40
0.0145833
 41
0.0145833
  0
VERTEX
  8
0
 10
7.45074
 20
26.8911
 30
0.0
 40
0.0145833
 41
0.0145833
  0
VERTEX
  8
0
 10
7.42563
 20
26.7043
 30
0.0
 40
0.0145833
 41
0.0145833
  0
VERTEX
  8
0
 10
7.35357
 20
26.4724
 30
0.0
 40
0.0145833
 41
0.0145833
  0
VERTEX
  8
0
 10
7.23964
 20
26.2624
 30
0.0
 40
0.0145833
 41
0.0145833
  0
VERTEX
  8
0
 10
7.08871
 20
26.0796
 30
0.0
 40
0.0145833
 41
0.0145833
  0
VERTEX
  8
0
 10
6.90582
 20
25.9286
 30
0.0
 40
0.0145833
 41
0.0145833
  0
VERTEX
  8
0
 10
6.69586
 20
25.8147
 30
0.0
 40
0.0145833
 41
0.0145833
  0
VERTEX
  8
0
 10
6.46386
 20
25.7426
 30
0.0
 40
0.0145833
 41
0.0145833
  0
VERTEX
  8
0
 10
6.27707
 20
25.7175
 30
0.0
 40
0.0145833
 41
0.0145833
  0
VERTEX
  8
0
 10
6.21485
 20
25.7175
 30
0.0
 40
0.0145833
 41
0.0145833
  0
VERTEX
  8
0
 10
6.15256
 20
25.7175
 30
0.0
 40
0.0145833
 41
0.0145833
  0
VERTEX
  8
0
 10
5.96576
 20
25.7426
 30
0.0
 40
0.0145833
 41
0.0145833
  0
VERTEX
  8
0
 10
5.73378
 20
25.8147
 30
0.0
 40
0.0145833
 41
0.0145833
  0
VERTEX
  8
0
 10
5.52382
 20
25.9286
 30
0.0
 40
0.0145833
 41
0.0145833
  0
VERTEX
  8
0
 10
5.34093
 20
26.0796
 30
0.0
 40
0.0145833
 41
0.0145833
  0
VERTEX
  8
0
 10
5.19
 20
26.2624
 30
0.0
 40
0.0145833
 41
0.0145833
  0
VERTEX
  8
0
 10
5.07607
 20
26.4724
 30
0.0
 40
0.0145833
 41
0.0145833
  0
VERTEX
  8
0
 10
5.00401
 20
26.7043
 30
0.0
 40
0.0145833
 41
0.0145833
  0
VERTEX
  8
0
 10
4.97894
 20
26.8911
 30
0.0
 40
0.0145833
 41
0.0145833
  0
VERTEX
  8
0
 10
4.97894
 20
26.9533
 30
0.0
 40
0.0145833
 41
0.0145833
  0
VERTEX
  8
0
 10
4.97894
 20
27.0157
 30
0.0
 40
0.0145833
 41
0.0145833
  0
VERTEX
  8
0
 10
5.00401
 20
27.2025
 30
0.0
 40
0.0145833
 41
0.0145833
  0
VERTEX
  8
0
 10
5.07607
 20
27.4344
 30
0.0
 40
0.0145833
 41
0.0145833
  0
VERTEX
  8
0
 10
5.19
 20
27.6444
 30
0.0
 40
0.0145833
 41
0.0145833
  0
VERTEX
  8
0
 10
5.34093
 20
27.8274
 30
0.0
 40
0.0145833
 41
0.0145833
  0
VERTEX
  8
0
 10
5.52382
 20
27.9782
 30
0.0
 40
0.0145833
 41
0.0145833
  0
VERTEX
  8
0
 10
5.73378
 20
28.0922
 30
0.0
 40
0.0145833
 41
0.0145833
  0
VERTEX
  8
0
 10
5.96576
 20
28.1642
 30
0.0
 40
0.0145833
 41
0.0145833
  0
VERTEX
  8
0
 10
6.15256
 20
28.1893
 30
0.0
 40
0.0145833
 41
0.0145833
  0
VERTEX
  8
0
 10
6.21485
 20
28.1893
 30
0.0
 40
0.0145833
 41
0.0145833
  0
VERTEX
  8
0
 10
6.27707
 20
28.1893
 30
0.0
 40
0.0145833
 41
0.0145833
  0
VERTEX
  8
0
 10
6.46386
 20
28.1642
 30
0.0
 40
0.0145833
 41
0.0145833
  0
VERTEX
  8
0
 10
6.69586
 20
28.0922
 30
0.0
 40
0.0145833
 41
0.0145833
  0
VERTEX
  8
0
 10
6.90582
 20
27.9782
 30
0.0
 40
0.0145833
 41
0.0145833
  0
VERTEX
  8
0
 10
7.08871
 20
27.8274
 30
0.0
 40
0.0145833
 41
0.0145833
  0
VERTEX
  8
0
 10
7.23964
 20
27.6444
 30
0.0
 40
0.0145833
 41
0.0145833
  0
VERTEX
  8
0
 10
7.35357
 20
27.4344
 30
0.0
 40
0.0145833
 41
0.0145833
  0
VERTEX
  8
0
 10
7.42563
 20
27.2025
 30
0.0
 40
0.0145833
 41
0.0145833
  0
VERTEX
  8
0
 10
7.45074
 20
27.0157
 30
0.0
 40
0.0145833
 41
0.0145833
  0
VERTEX
  8
0
 10
7.45074
 20
26.9533
 30
0.0
 40
0.0145833
 41
0.0145833
  0
SEQEND
 8
0
  0
POLYLINE
  8
0
 62
     0
 66
     1
 10
0
 20
0
 30
0.0
 70
     1
 40
1.05
 41
1.05
  0
VERTEX
  8
0
 10
11.5265
 20
26.9533
 30
0.0
 40
0.0145833
 41
0.0145833
  0
VERTEX
  8
0
 10
11.5265
 20
26.8911
 30
0.0
 40
0.0145833
 41
0.0145833
  0
VERTEX
  8
0
 10
11.5014
 20
26.7043
 30
0.0
 40
0.0145833
 41
0.0145833
  0
VERTEX
  8
0
 10
11.4293
 20
26.4724
 30
0.0
 40
0.0145833
 41
0.0145833
  0
VERTEX
  8
0
 10
11.3154
 20
26.2624
 30
0.0
 40
0.0145833
 41
0.0145833
  0
VERTEX
  8
0
 10
11.1644
 20
26.0796
 30
0.0
 40
0.0145833
 41
0.0145833
  0
VERTEX
  8
0
 10
10.9816
 20
25.9286
 30
0.0
 40
0.0145833
 41
0.0145833
  0
VERTEX
  8
0
 10
10.7716
 20
25.8147
 30
0.0
 40
0.0145833
 41
0.0145833
  0
VERTEX
  8
0
 10
10.5396
 20
25.7426
 30
0.0
 40
0.0145833
 41
0.0145833
  0
VERTEX
  8
0
 10
10.3528
 20
25.7175
 30
0.0
 40
0.0145833
 41
0.0145833
  0
VERTEX
  8
0
 10
10.2906
 20
25.7175
 30
0.0
 40
0.0145833
 41
0.0145833
  0
VERTEX
  8
0
 10
10.2283
 20
25.7175
 30
0.0
 40
0.0145833
 41
0.0145833
  0
VERTEX
  8
0
 10
10.0414
 20
25.7426
 30
0.0
 40
0.0145833
 41
0.0145833
  0
VERTEX
  8
0
 10
9.80946
 20
25.8147
 30
0.0
 40
0.0145833
 41
0.0145833
  0
VERTEX
  8
0
 10
9.5995
 20
25.9286
 30
0.0
 40
0.0145833
 41
0.0145833
  0
VERTEX
  8
0
 10
9.41661
 20
26.0796
 30
0.0
 40
0.0145833
 41
0.0145833
  0
VERTEX
  8
0
 10
9.26568
 20
26.2624
 30
0.0
 40
0.0145833
 41
0.0145833
  0
VERTEX
  8
0
 10
9.15175
 20
26.4724
 30
0.0
 40
0.0145833
 41
0.0145833
  0
VERTEX
  8
0
 10
9.07969
 20
26.7043
 30
0.0
 40
0.0145833
 41
0.0145833
  0
VERTEX
  8
0
 10
9.05464
 20
26.8911
 30
0.0
 40
0.0145833
 41
0.0145833
  0
VERTEX
  8
0
 10
9.05464
 20
26.9533
 30
0.0
 40
0.0145833
 41
0.0145833
  0
VERTEX
  8
0
 10
9.05464
 20
27.0157
 30
0.0
 40
0.0145833
 41
0.0145833
  0
VERTEX
  8
0
 10
9.07969
 20
27.2025
 30
0.0
 40
0.0145833
 41
0.0145833
  0
VERTEX
  8
0
 10
9.15175
 20
27.4344
 30
0.0
 40
0.0145833
 41
0.0145833
  0
VERTEX
  8
0
 10
9.26568
 20
27.6444
 30
0.0
 40
0.0145833
 41
0.0145833
  0
VERTEX
  8
0
 10
9.41661
 20
27.8274
 30
0.0
 40
0.0145833
 41
0.0145833
  0
VERTEX
  8
0
 10
9.5995
 20
27.9782
 30
0.0
 40
0.0145833
 41
0.0145833
  0
VERTEX
  8
0
 10
9.80946
 20
28.0922
 30
0.0
 40
0.0145833
 41
0.0145833
  0
VERTEX
  8
0
 10
10.0414
 20
28.1642
 30
0.0
 40
0.0145833
 41
0.0145833
  0
VERTEX
  8
0
 10
10.2283
 20
28.1893
 30
0.0
 40
0.0145833
 41
0.0145833
  0
VERTEX
  8
0
 10
10.2906
 20
28.1893
 30
0.0
 40
0.0145833
 41
0.0145833
  0
VERTEX
  8
0
 10
10.3528
 20
28.1893
 30
0.0
 40
0.0145833
 41
0.0145833
  0
VERTEX
  8
0
 10
10.5396
 20
28.1642
 30
0.0
 40
0.0145833
 41
0.0145833
  0
VERTEX
  8
0
 10
10.7716
 20
28.0922
 30
0.0
 40
0.0145833
 41
0.0145833
  0
VERTEX
  8
0
 10
10.9816
 20
27.9782
 30
0.0
 40
0.0145833
 41
0.0145833
  0
VERTEX
  8
0
 10
11.1644
 20
27.8274
 30
0.0
 40
0.0145833
 41
0.0145833
  0
VERTEX
  8
0
 10
11.3154
 20
27.6444
 30
0.0
 40
0.0145833
 41
0.0145833
  0
VERTEX
  8
0
 10
11.4293
 20
27.4344
 30
0.0
 40
0.0145833
 41
0.0145833
  0
VERTEX
  8
0
 10
11.5014
 20
27.2025
 30
0.0
 40
0.0145833
 41
0.0145833
  0
VERTEX
  8
0
 10
11.5265
 20
27.0157
 30
0.0
 40
0.0145833
 41
0.0145833
  0
VERTEX
  8
0
 10
11.5265
 20
26.9533
 30
0.0
 40
0.0145833
 41
0.0145833
  0
SEQEND
 8
0
  0
POLYLINE
  8
0
 62
     0
 66
     1
 10
0
 20
0
 30
0.0
 70
     1
 40
1.05
 41
1.05
  0
VERTEX
  8
0
 10
15.5372
 20
26.9533
 30
0.0
 40
0.0145833
 41
0.0145833
  0
VERTEX
  8
0
 10
15.5372
 20
26.8911
 30
0.0
 40
0.0145833
 41
0.0145833
  0
VERTEX
  8
0
 10
15.5121
 20
26.7043
 30
0.0
 40
0.0145833
 41
0.0145833
  0
VERTEX
  8
0
 10
15.44
 20
26.4724
 30
0.0
 40
0.0145833
 41
0.0145833
  0
VERTEX
  8
0
 10
15.3261
 20
26.2624
 30
0.0
 40
0.0145833
 41
0.0145833
  0
VERTEX
  8
0
 10
15.1751
 20
26.0796
 30
0.0
 40
0.0145833
 41
0.0145833
  0
VERTEX
  8
0
 10
14.9922
 20
25.9286
 30
0.0
 40
0.0145833
 41
0.0145833
  0
VERTEX
  8
0
 10
14.7822
 20
25.8147
 30
0.0
 40
0.0145833
 41
0.0145833
  0
VERTEX
  8
0
 10
14.5503
 20
25.7426
 30
0.0
 40
0.0145833
 41
0.0145833
  0
VERTEX
  8
0
 10
14.3635
 20
25.7175
 30
0.0
 40
0.0145833
 41
0.0145833
  0
VERTEX
  8
0
 10
14.3012
 20
25.7175
 30
0.0
 40
0.0145833
 41
0.0145833
  0
VERTEX
  8
0
 10
14.239
 20
25.7175
 30
0.0
 40
0.0145833
 41
0.0145833
  0
VERTEX
  8
0
 10
14.0522
 20
25.7426
 30
0.0
 40
0.0145833
 41
0.0145833
  0
VERTEX
  8
0
 10
13.8202
 20
25.8147
 30
0.0
 40
0.0145833
 41
0.0145833
  0
VERTEX
  8
0
 10
13.6102
 20
25.9286
 30
0.0
 40
0.0145833
 41
0.0145833
  0
VERTEX
  8
0
 10
13.4274
 20
26.0796
 30
0.0
 40
0.0145833
 41
0.0145833
  0
VERTEX
  8
0
 10
13.2764
 20
26.2624
 30
0.0
 40
0.0145833
 41
0.0145833
  0
VERTEX
  8
0
 10
13.1625
 20
26.4724
 30
0.0
 40
0.0145833
 41
0.0145833
  0
VERTEX
  8
0
 10
13.0904
 20
26.7043
 30
0.0
 40
0.0145833
 41
0.0145833
  0
VERTEX
  8
0
 10
13.0654
 20
26.8911
 30
0.0
 40
0.0145833
 41
0.0145833
  0
VERTEX
  8
0
 10
13.0654
 20
26.9533
 30
0.0
 40
0.0145833
 41
0.0145833
  0
VERTEX
  8
0
 10
13.0654
 20
27.0157
 30
0.0
 40
0.0145833
 41
0.0145833
  0
VERTEX
  8
0
 10
13.0904
 20
27.2025
 30
0.0
 40
0.0145833
 41
0.0145833
  0
VERTEX
  8
0
 10
13.1625
 20
27.4344
 30
0.0
 40
0.0145833
 41
0.0145833
  0
VERTEX
  8
0
 10
13.2764
 20
27.6444
 30
0.0
 40
0.0145833
 41
0.0145833
  0
VERTEX
  8
0
 10
13.4274
 20
27.8274
 30
0.0
 40
0.0145833
 41
0.0145833
  0
VERTEX
  8
0
 10
13.6102
 20
27.9782
 30
0.0
 40
0.0145833
 41
0.0145833
  0
VERTEX
  8
0
 10
13.8202
 20
28.0922
 30
0.0
 40
0.0145833
 41
0.0145833
  0
VERTEX
  8
0
 10
14.0522
 20
28.1642
 30
0.0
 40
0.0145833
 41
0.0145833
  0
VERTEX
  8
0
 10
14.239
 20
28.1893
 30
0.0
 40
0.0145833
 41
0.0145833
  0
VERTEX
  8
0
 10
14.3012
 20
28.1893
 30
0.0
 40
0.0145833
 41
0.0145833
  0
VERTEX
  8
0
 10
14.3635
 20
28.1893
 30
0.0
 40
0.0145833
 41
0.0145833
  0
VERTEX
  8
0
 10
14.5503
 20
28.1642
 30
0.0
 40
0.0145833
 41
0.0145833
  0
VERTEX
  8
0
 10
14.7822
 20
28.0922
 30
0.0
 40
0.0145833
 41
0.0145833
  0
VERTEX
  8
0
 10
14.9922
 20
27.9782
 30
0.0
 40
0.0145833
 41
0.0145833
  0
VERTEX
  8
0
 10
15.1751
 20
27.8274
 30
0.0
 40
0.0145833
 41
0.0145833
  0
VERTEX
  8
0
 10
15.3261
 20
27.6444
 30
0.0
 40
0.0145833
 41
0.0145833
  0
VERTEX
  8
0
 10
15.44
 20
27.4344
 30
0.0
 40
0.0145833
 41
0.0145833
  0
VERTEX
  8
0
 10
15.5121
 20
27.2025
 30
0.0
 40
0.0145833
 41
0.0145833
  0
VERTEX
  8
0
 10
15.5372
 20
27.0157
 30
0.0
 40
0.0145833
 41
0.0145833
  0
VERTEX
  8
0
 10
15.5372
 20
26.9533
 30
0.0
 40
0.0145833
 41
0.0145833
  0
SEQEND
 8
0
  0
POLYLINE
  8
0
 62
     0
 66
     1
 10
0
 20
0
 30
0.0
 70
     1
 40
1.05
 41
1.05
  0
VERTEX
  8
0
 10
3.47217
 20
20.4035
 30
0.0
 40
0.0145833
 41
0.0145833
  0
VERTEX
  8
0
 10
3.47217
 20
20.3412
 30
0.0
 40
0.0145833
 41
0.0145833
  0
VERTEX
  8
0
 10
3.44706
 20
20.1544
 30
0.0
 40
0.0145833
 41
0.0145833
  0
VERTEX
  8
0
 10
3.375
 20
19.9225
 30
0.0
 40
0.0145833
 41
0.0145833
  0
VERTEX
  8
0
 10
3.26107
 20
19.7125
 30
0.0
 40
0.0145833
 41
0.0145833
  0
VERTEX
  8
0
 10
3.11014
 20
19.5296
 30
0.0
 40
0.0145833
 41
0.0145833
  0
VERTEX
  8
0
 10
2.92725
 20
19.3788
 30
0.0
 40
0.0145833
 41
0.0145833
  0
VERTEX
  8
0
 10
2.71729
 20
19.2647
 30
0.0
 40
0.0145833
 41
0.0145833
  0
VERTEX
  8
0
 10
2.48529
 20
19.1928
 30
0.0
 40
0.0145833
 41
0.0145833
  0
VERTEX
  8
0
 10
2.2985
 20
19.1676
 30
0.0
 40
0.0145833
 41
0.0145833
  0
VERTEX
  8
0
 10
2.23628
 20
19.1676
 30
0.0
 40
0.0145833
 41
0.0145833
  0
VERTEX
  8
0
 10
2.17399
 20
19.1676
 30
0.0
 40
0.0145833
 41
0.0145833
  0
VERTEX
  8
0
 10
1.98719
 20
19.1928
 30
0.0
 40
0.0145833
 41
0.0145833
  0
VERTEX
  8
0
 10
1.75521
 20
19.2647
 30
0.0
 40
0.0145833
 41
0.0145833
  0
VERTEX
  8
0
 10
1.54525
 20
19.3788
 30
0.0
 40
0.0145833
 41
0.0145833
  0
VERTEX
  8
0
 10
1.36236
 20
19.5296
 30
0.0
 40
0.0145833
 41
0.0145833
  0
VERTEX
  8
0
 10
1.21143
 20
19.7125
 30
0.0
 40
0.0145833
 41
0.0145833
  0
VERTEX
  8
0
 10
1.09749
 20
19.9225
 30
0.0
 40
0.0145833
 41
0.0145833
  0
VERTEX
  8
0
 10
1.02544
 20
20.1544
 30
0.0
 40
0.0145833
 41
0.0145833
  0
VERTEX
  8
0
 10
1.00038
 20
20.3412
 30
0.0
 40
0.0145833
 41
0.0145833
  0
VERTEX
  8
0
 10
1.00038
 20
20.4035
 30
0.0
 40
0.0145833
 41
0.0145833
  0
VERTEX
  8
0
 10
1.00038
 20
20.4658
 30
0.0
 40
0.0145833
 41
0.0145833
  0
VERTEX
  8
0
 10
1.02544
 20
20.6525
 30
0.0
 40
0.0145833
 41
0.0145833
  0
VERTEX
  8
0
 10
1.09749
 20
20.8846
 30
0.0
 40
0.0145833
 41
0.0145833
  0
VERTEX
  8
0
 10
1.21143
 20
21.0944
 30
0.0
 40
0.0145833
 41
0.0145833
  0
VERTEX
  8
0
 10
1.36236
 20
21.2774
 30
0.0
 40
0.0145833
 41
0.0145833
  0
VERTEX
  8
0
 10
1.54525
 20
21.4283
 30
0.0
 40
0.0145833
 41
0.0145833
  0
VERTEX
  8
0
 10
1.75521
 20
21.5422
 30
0.0
 40
0.0145833
 41
0.0145833
  0
VERTEX
  8
0
 10
1.98719
 20
21.6143
 30
0.0
 40
0.0145833
 41
0.0145833
  0
VERTEX
  8
0
 10
2.17399
 20
21.6394
 30
0.0
 40
0.0145833
 41
0.0145833
  0
VERTEX
  8
0
 10
2.23628
 20
21.6394
 30
0.0
 40
0.0145833
 41
0.0145833
  0
VERTEX
  8
0
 10
2.2985
 20
21.6394
 30
0.0
 40
0.0145833
 41
0.0145833
  0
VERTEX
  8
0
 10
2.48529
 20
21.6143
 30
0.0
 40
0.0145833
 41
0.0145833
  0
VERTEX
  8
0
 10
2.71729
 20
21.5422
 30
0.0
 40
0.0145833
 41
0.0145833
  0
VERTEX
  8
0
 10
2.92725
 20
21.4283
 30
0.0
 40
0.0145833
 41
0.0145833
  0
VERTEX
  8
0
 10
3.11014
 20
21.2774
 30
0.0
 40
0.0145833
 41
0.0145833
  0
VERTEX
  8
0
 10
3.26107
 20
21.0944
 30
0.0
 40
0.0145833
 41
0.0145833
  0
VERTEX
  8
0
 10
3.375
 20
20.8846
 30
0.0
 40
0.0145833
 41
0.0145833
  0
VERTEX
  8
0
 10
3.44706
 20
20.6525
 30
0.0
 40
0.0145833
 41
0.0145833
  0
VERTEX
  8
0
 10
3.47217
 20
20.4658
 30
0.0
 40
0.0145833
 41
0.0145833
  0
VERTEX
  8
0
 10
3.47217
 20
20.4035
 30
0.0
 40
0.0145833
 41
0.0145833
  0
SEQEND
 8
0
  0
POLYLINE
  8
0
 62
     0
 66
     1
 10
0
 20
0
 30
0.0
 70
     1
 40
1.05
 41
1.05
  0
VERTEX
  8
0
 10
7.45074
 20
20.4035
 30
0.0
 40
0.0145833
 41
0.0145833
  0
VERTEX
  8
0
 10
7.45074
 20
20.3412
 30
0.0
 40
0.0145833
 41
0.0145833
  0
VERTEX
  8
0
 10
7.42563
 20
20.1544
 30
0.0
 40
0.0145833
 41
0.0145833
  0
VERTEX
  8
0
 10
7.35357
 20
19.9225
 30
0.0
 40
0.0145833
 41
0.0145833
  0
VERTEX
  8
0
 10
7.23964
 20
19.7125
 30
0.0
 40
0.0145833
 41
0.0145833
  0
VERTEX
  8
0
 10
7.08871
 20
19.5296
 30
0.0
 40
0.0145833
 41
0.0145833
  0
VERTEX
  8
0
 10
6.90582
 20
19.3788
 30
0.0
 40
0.0145833
 41
0.0145833
  0
VERTEX
  8
0
 10
6.69586
 20
19.2647
 30
0.0
 40
0.0145833
 41
0.0145833
  0
VERTEX
  8
0
 10
6.46386
 20
19.1928
 30
0.0
 40
0.0145833
 41
0.0145833
  0
VERTEX
  8
0
 10
6.27707
 20
19.1676
 30
0.0
 40
0.0145833
 41
0.0145833
  0
VERTEX
  8
0
 10
6.21485
 20
19.1676
 30
0.0
 40
0.0145833
 41
0.0145833
  0
VERTEX
  8
0
 10
6.15256
 20
19.1676
 30
0.0
 40
0.0145833
 41
0.0145833
  0
VERTEX
  8
0
 10
5.96576
 20
19.1928
 30
0.0
 40
0.0145833
 41
0.0145833
  0
VERTEX
  8
0
 10
5.73378
 20
19.2647
 30
0.0
 40
0.0145833
 41
0.0145833
  0
VERTEX
  8
0
 10
5.52382
 20
19.3788
 30
0.0
 40
0.0145833
 41
0.0145833
  0
VERTEX
  8
0
 10
5.34093
 20
19.5296
 30
0.0
 40
0.0145833
 41
0.0145833
  0
VERTEX
  8
0
 10
5.19
 20
19.7125
 30
0.0
 40
0.0145833
 41
0.0145833
  0
VERTEX
  8
0
 10
5.07607
 20
19.9225
 30
0.0
 40
0.0145833
 41
0.0145833
  0
VERTEX
  8
0
 10
5.00401
 20
20.1544
 30
0.0
 40
0.0145833
 41
0.0145833
  0
VERTEX
  8
0
 10
4.97894
 20
20.3412
 30
0.0
 40
0.0145833
 41
0.0145833
  0
VERTEX
  8
0
 10
4.97894
 20
20.4035
 30
0.0
 40
0.0145833
 41
0.0145833
  0
VERTEX
  8
0
 10
4.97894
 20
20.4658
 30
0.0
 40
0.0145833
 41
0.0145833
  0
VERTEX
  8
0
 10
5.00401
 20
20.6525
 30
0.0
 40
0.0145833
 41
0.0145833
  0
VERTEX
  8
0
 10
5.07607
 20
20.8846
 30
0.0
 40
0.0145833
 41
0.0145833
  0
VERTEX
  8
0
 10
5.19
 20
21.0944
 30
0.0
 40
0.0145833
 41
0.0145833
  0
VERTEX
  8
0
 10
5.34093
 20
21.2774
 30
0.0
 40
0.0145833
 41
0.0145833
  0
VERTEX
  8
0
 10
5.52382
 20
21.4283
 30
0.0
 40
0.0145833
 41
0.0145833
  0
VERTEX
  8
0
 10
5.73378
 20
21.5422
 30
0.0
 40
0.0145833
 41
0.0145833
  0
VERTEX
  8
0
 10
5.96576
 20
21.6143
 30
0.0
 40
0.0145833
 41
0.0145833
  0
VERTEX
  8
0
 10
6.15256
 20
21.6394
 30
0.0
 40
0.0145833
 41
0.0145833
  0
VERTEX
  8
0
 10
6.21485
 20
21.6394
 30
0.0
 40
0.0145833
 41
0.0145833
  0
VERTEX
  8
0
 10
6.27707
 20
21.6394
 30
0.0
 40
0.0145833
 41
0.0145833
  0
VERTEX
  8
0
 10
6.46386
 20
21.6143
 30
0.0
 40
0.0145833
 41
0.0145833
  0
VERTEX
  8
0
 10
6.69586
 20
21.5422
 30
0.0
 40
0.0145833
 41
0.0145833
  0
VERTEX
  8
0
 10
6.90582
 20
21.4283
 30
0.0
 40
0.0145833
 41
0.0145833
  0
VERTEX
  8
0
 10
7.08871
 20
21.2774
 30
0.0
 40
0.0145833
 41
0.0145833
  0
VERTEX
  8
0
 10
7.23964
 20
21.0944
 30
0.0
 40
0.0145833
 41
0.0145833
  0
VERTEX
  8
0
 10
7.35357
 20
20.8846
 30
0.0
 40
0.0145833
 41
0.0145833
  0
VERTEX
  8
0
 10
7.42563
 20
20.6525
 30
0.0
 40
0.0145833
 41
0.0145833
  0
VERTEX
  8
0
 10
7.45074
 20
20.4658
 30
0.0
 40
0.0145833
 41
0.0145833
  0
VERTEX
  8
0
 10
7.45074
 20
20.4035
 30
0.0
 40
0.0145833
 41
0.0145833
  0
SEQEND
 8
0
  0
POLYLINE
  8
0
 62
     0
 66
     1
 10
0
 20
0
 30
0.0
 70
     1
 40
1.05
 41
1.05
  0
VERTEX
  8
0
 10
11.5265
 20
20.4035
 30
0.0
 40
0.0145833
 41
0.0145833
  0
VERTEX
  8
0
 10
11.5265
 20
20.3412
 30
0.0
 40
0.0145833
 41
0.0145833
  0
VERTEX
  8
0
 10
11.5014
 20
20.1544
 30
0.0
 40
0.0145833
 41
0.0145833
  0
VERTEX
  8
0
 10
11.4293
 20
19.9225
 30
0.0
 40
0.0145833
 41
0.0145833
  0
VERTEX
  8
0
 10
11.3154
 20
19.7125
 30
0.0
 40
0.0145833
 41
0.0145833
  0
VERTEX
  8
0
 10
11.1644
 20
19.5296
 30
0.0
 40
0.0145833
 41
0.0145833
  0
VERTEX
  8
0
 10
10.9816
 20
19.3788
 30
0.0
 40
0.0145833
 41
0.0145833
  0
VERTEX
  8
0
 10
10.7716
 20
19.2647
 30
0.0
 40
0.0145833
 41
0.0145833
  0
VERTEX
  8
0
 10
10.5396
 20
19.1928
 30
0.0
 40
0.0145833
 41
0.0145833
  0
VERTEX
  8
0
 10
10.3528
 20
19.1676
 30
0.0
 40
0.0145833
 41
0.0145833
  0
VERTEX
  8
0
 10
10.2906
 20
19.1676
 30
0.0
 40
0.0145833
 41
0.0145833
  0
VERTEX
  8
0
 10
10.2283
 20
19.1676
 30
0.0
 40
0.0145833
 41
0.0145833
  0
VERTEX
  8
0
 10
10.0414
 20
19.1928
 30
0.0
 40
0.0145833
 41
0.0145833
  0
VERTEX
  8
0
 10
9.80946
 20
19.2647
 30
0.0
 40
0.0145833
 41
0.0145833
  0
VERTEX
  8
0
 10
9.5995
 20
19.3788
 30
0.0
 40
0.0145833
 41
0.0145833
  0
VERTEX
  8
0
 10
9.41661
 20
19.5296
 30
0.0
 40
0.0145833
 41
0.0145833
  0
VERTEX
  8
0
 10
9.26568
 20
19.7125
 30
0.0
 40
0.0145833
 41
0.0145833
  0
VERTEX
  8
0
 10
9.15175
 20
19.9225
 30
0.0
 40
0.0145833
 41
0.0145833
  0
VERTEX
  8
0
 10
9.07969
 20
20.1544
 30
0.0
 40
0.0145833
 41
0.0145833
  0
VERTEX
  8
0
 10
9.05464
 20
20.3412
 30
0.0
 40
0.0145833
 41
0.0145833
  0
VERTEX
  8
0
 10
9.05464
 20
20.4035
 30
0.0
 40
0.0145833
 41
0.0145833
  0
VERTEX
  8
0
 10
9.05464
 20
20.4658
 30
0.0
 40
0.0145833
 41
0.0145833
  0
VERTEX
  8
0
 10
9.07969
 20
20.6525
 30
0.0
 40
0.0145833
 41
0.0145833
  0
VERTEX
  8
0
 10
9.15175
 20
20.8846
 30
0.0
 40
0.0145833
 41
0.0145833
  0
VERTEX
  8
0
 10
9.26568
 20
21.0944
 30
0.0
 40
0.0145833
 41
0.0145833
  0
VERTEX
  8
0
 10
9.41661
 20
21.2774
 30
0.0
 40
0.0145833
 41
0.0145833
  0
VERTEX
  8
0
 10
9.5995
 20
21.4283
 30
0.0
 40
0.0145833
 41
0.0145833
  0
VERTEX
  8
0
 10
9.80946
 20
21.5422
 30
0.0
 40
0.0145833
 41
0.0145833
  0
VERTEX
  8
0
 10
10.0414
 20
21.6143
 30
0.0
 40
0.0145833
 41
0.0145833
  0
VERTEX
  8
0
 10
10.2283
 20
21.6394
 30
0.0
 40
0.0145833
 41
0.0145833
  0
VERTEX
  8
0
 10
10.2906
 20
21.6394
 30
0.0
 40
0.0145833
 41
0.0145833
  0
VERTEX
  8
0
 10
10.3528
 20
21.6394
 30
0.0
 40
0.0145833
 41
0.0145833
  0
VERTEX
  8
0
 10
10.5396
 20
21.6143
 30
0.0
 40
0.0145833
 41
0.0145833
  0
VERTEX
  8
0
 10
10.7716
 20
21.5422
 30
0.0
 40
0.0145833
 41
0.0145833
  0
VERTEX
  8
0
 10
10.9816
 20
21.4283
 30
0.0
 40
0.0145833
 41
0.0145833
  0
VERTEX
  8
0
 10
11.1644
 20
21.2774
 30
0.0
 40
0.0145833
 41
0.0145833
  0
VERTEX
  8
0
 10
11.3154
 20
21.0944
 30
0.0
 40
0.0145833
 41
0.0145833
  0
VERTEX
  8
0
 10
11.4293
 20
20.8846
 30
0.0
 40
0.0145833
 41
0.0145833
  0
VERTEX
  8
0
 10
11.5014
 20
20.6525
 30
0.0
 40
0.0145833
 41
0.0145833
  0
VERTEX
  8
0
 10
11.5265
 20
20.4658
 30
0.0
 40
0.0145833
 41
0.0145833
  0
VERTEX
  8
0
 10
11.5265
 20
20.4035
 30
0.0
 40
0.0145833
 41
0.0145833
  0
SEQEND
 8
0
  0
POLYLINE
  8
0
 62
     0
 66
     1
 10
0
 20
0
 30
0.0
 70
     1
 40
1.05
 41
1.05
  0
VERTEX
  8
0
 10
15.5372
 20
20.4035
 30
0.0
 40
0.0145833
 41
0.0145833
  0
VERTEX
  8
0
 10
15.5372
 20
20.3412
 30
0.0
 40
0.0145833
 41
0.0145833
  0
VERTEX
  8
0
 10
15.5121
 20
20.1544
 30
0.0
 40
0.0145833
 41
0.0145833
  0
VERTEX
  8
0
 10
15.44
 20
19.9225
 30
0.0
 40
0.0145833
 41
0.0145833
  0
VERTEX
  8
0
 10
15.3261
 20
19.7125
 30
0.0
 40
0.0145833
 41
0.0145833
  0
VERTEX
  8
0
 10
15.1751
 20
19.5296
 30
0.0
 40
0.0145833
 41
0.0145833
  0
VERTEX
  8
0
 10
14.9922
 20
19.3788
 30
0.0
 40
0.0145833
 41
0.0145833
  0
VERTEX
  8
0
 10
14.7822
 20
19.2647
 30
0.0
 40
0.0145833
 41
0.0145833
  0
VERTEX
  8
0
 10
14.5503
 20
19.1928
 30
0.0
 40
0.0145833
 41
0.0145833
  0
VERTEX
  8
0
 10
14.3635
 20
19.1676
 30
0.0
 40
0.0145833
 41
0.0145833
  0
VERTEX
  8
0
 10
14.3012
 20
19.1676
 30
0.0
 40
0.0145833
 41
0.0145833
  0
VERTEX
  8
0
 10
14.239
 20
19.1676
 30
0.0
 40
0.0145833
 41
0.0145833
  0
VERTEX
  8
0
 10
14.0522
 20
19.1928
 30
0.0
 40
0.0145833
 41
0.0145833
  0
VERTEX
  8
0
 10
13.8202
 20
19.2647
 30
0.0
 40
0.0145833
 41
0.0145833
  0
VERTEX
  8
0
 10
13.6102
 20
19.3788
 30
0.0
 40
0.0145833
 41
0.0145833
  0
VERTEX
  8
0
 10
13.4274
 20
19.5296
 30
0.0
 40
0.0145833
 41
0.0145833
  0
VERTEX
  8
0
 10
13.2764
 20
19.7125
 30
0.0
 40
0.0145833
 41
0.0145833
  0
VERTEX
  8
0
 10
13.1625
 20
19.9225
 30
0.0
 40
0.0145833
 41
0.0145833
  0
VERTEX
  8
0
 10
13.0904
 20
20.1544
 30
0.0
 40
0.0145833
 41
0.0145833
  0
VERTEX
  8
0
 10
13.0654
 20
20.3412
 30
0.0
 40
0.0145833
 41
0.0145833
  0
VERTEX
  8
0
 10
13.0654
 20
20.4035
 30
0.0
 40
0.0145833
 41
0.0145833
  0
VERTEX
  8
0
 10
13.0654
 20
20.4658
 30
0.0
 40
0.0145833
 41
0.0145833
  0
VERTEX
  8
0
 10
13.0904
 20
20.6525
 30
0.0
 40
0.0145833
 41
0.0145833
  0
VERTEX
  8
0
 10
13.1625
 20
20.8846
 30
0.0
 40
0.0145833
 41
0.0145833
  0
VERTEX
  8
0
 10
13.2764
 20
21.0944
 30
0.0
 40
0.0145833
 41
0.0145833
  0
VERTEX
  8
0
 10
13.4274
 20
21.2774
 30
0.0
 40
0.0145833
 41
0.0145833
  0
VERTEX
  8
0
 10
13.6102
 20
21.4283
 30
0.0
 40
0.0145833
 41
0.0145833
  0
VERTEX
  8
0
 10
13.8202
 20
21.5422
 30
0.0
 40
0.0145833
 41
0.0145833
  0
VERTEX
  8
0
 10
14.0522
 20
21.6143
 30
0.0
 40
0.0145833
 41
0.0145833
  0
VERTEX
  8
0
 10
14.239
 20
21.6394
 30
0.0
 40
0.0145833
 41
0.0145833
  0
VERTEX
  8
0
 10
14.3012
 20
21.6394
 30
0.0
 40
0.0145833
 41
0.0145833
  0
VERTEX
  8
0
 10
14.3635
 20
21.6394
 30
0.0
 40
0.0145833
 41
0.0145833
  0
VERTEX
  8
0
 10
14.5503
 20
21.6143
 30
0.0
 40
0.0145833
 41
0.0145833
  0
VERTEX
  8
0
 10
14.7822
 20
21.5422
 30
0.0
 40
0.0145833
 41
0.0145833
  0
VERTEX
  8
0
 10
14.9922
 20
21.4283
 30
0.0
 40
0.0145833
 41
0.0145833
  0
VERTEX
  8
0
 10
15.1751
 20
21.2774
 30
0.0
 40
0.0145833
 41
0.0145833
  0
VERTEX
  8
0
 10
15.3261
 20
21.0944
 30
0.0
 40
0.0145833
 41
0.0145833
  0
VERTEX
  8
0
 10
15.44
 20
20.8846
 30
0.0
 40
0.0145833
 41
0.0145833
  0
VERTEX
  8
0
 10
15.5121
 20
20.6525
 30
0.0
 40
0.0145833
 41
0.0145833
  0
VERTEX
  8
0
 10
15.5372
 20
20.4658
 30
0.0
 40
0.0145833
 41
0.0145833
  0
VERTEX
  8
0
 10
15.5372
 20
20.4035
 30
0.0
 40
0.0145833
 41
0.0145833
  0
SEQEND
 8
0
  0
POLYLINE
  8
0
 62
     0
 66
     1
 10
0
 20
0
 30
0.0
 70
     1
 40
1.05
 41
1.05
  0
VERTEX
  8
0
 10
15.5372
 20
13.8353
 30
0.0
 40
0.0145833
 41
0.0145833
  0
VERTEX
  8
0
 10
15.5372
 20
13.7731
 30
0.0
 40
0.0145833
 41
0.0145833
  0
VERTEX
  8
0
 10
15.5121
 20
13.5863
 30
0.0
 40
0.0145833
 41
0.0145833
  0
VERTEX
  8
0
 10
15.44
 20
13.3543
 30
0.0
 40
0.0145833
 41
0.0145833
  0
VERTEX
  8
0
 10
15.3261
 20
13.1444
 30
0.0
 40
0.0145833
 41
0.0145833
  0
VERTEX
  8
0
 10
15.1751
 20
12.9615
 30
0.0
 40
0.0145833
 41
0.0145833
  0
VERTEX
  8
0
 10
14.9922
 20
12.8105
 30
0.0
 40
0.0145833
 41
0.0145833
  0
VERTEX
  8
0
 10
14.7822
 20
12.6966
 30
0.0
 40
0.0145833
 41
0.0145833
  0
VERTEX
  8
0
 10
14.5503
 20
12.6246
 30
0.0
 40
0.0145833
 41
0.0145833
  0
VERTEX
  8
0
 10
14.3635
 20
12.5994
 30
0.0
 40
0.0145833
 41
0.0145833
  0
VERTEX
  8
0
 10
14.3012
 20
12.5994
 30
0.0
 40
0.0145833
 41
0.0145833
  0
VERTEX
  8
0
 10
14.239
 20
12.5994
 30
0.0
 40
0.0145833
 41
0.0145833
  0
VERTEX
  8
0
 10
14.0522
 20
12.6246
 30
0.0
 40
0.0145833
 41
0.0145833
  0
VERTEX
  8
0
 10
13.8202
 20
12.6966
 30
0.0
 40
0.0145833
 41
0.0145833
  0
VERTEX
  8
0
 10
13.6102
 20
12.8105
 30
0.0
 40
0.0145833
 41
0.0145833
  0
VERTEX
  8
0
 10
13.4274
 20
12.9615
 30
0.0
 40
0.0145833
 41
0.0145833
  0
VERTEX
  8
0
 10
13.2764
 20
13.1444
 30
0.0
 40
0.0145833
 41
0.0145833
  0
VERTEX
  8
0
 10
13.1625
 20
13.3543
 30
0.0
 40
0.0145833
 41
0.0145833
  0
VERTEX
  8
0
 10
13.0904
 20
13.5863
 30
0.0
 40
0.0145833
 41
0.0145833
  0
VERTEX
  8
0
 10
13.0654
 20
13.7731
 30
0.0
 40
0.0145833
 41
0.0145833
  0
VERTEX
  8
0
 10
13.0654
 20
13.8353
 30
0.0
 40
0.0145833
 41
0.0145833
  0
VERTEX
  8
0
 10
13.0654
 20
13.8976
 30
0.0
 40
0.0145833
 41
0.0145833
  0
VERTEX
  8
0
 10
13.0904
 20
14.0844
 30
0.0
 40
0.0145833
 41
0.0145833
  0
VERTEX
  8
0
 10
13.1625
 20
14.3165
 30
0.0
 40
0.0145833
 41
0.0145833
  0
VERTEX
  8
0
 10
13.2764
 20
14.5264
 30
0.0
 40
0.0145833
 41
0.0145833
  0
VERTEX
  8
0
 10
13.4274
 20
14.7093
 30
0.0
 40
0.0145833
 41
0.0145833
  0
VERTEX
  8
0
 10
13.6102
 20
14.8603
 30
0.0
 40
0.0145833
 41
0.0145833
  0
VERTEX
  8
0
 10
13.8202
 20
14.9742
 30
0.0
 40
0.0145833
 41
0.0145833
  0
VERTEX
  8
0
 10
14.0522
 20
15.0462
 30
0.0
 40
0.0145833
 41
0.0145833
  0
VERTEX
  8
0
 10
14.239
 20
15.0713
 30
0.0
 40
0.0145833
 41
0.0145833
  0
VERTEX
  8
0
 10
14.3012
 20
15.0713
 30
0.0
 40
0.0145833
 41
0.0145833
  0
VERTEX
  8
0
 10
14.3635
 20
15.0713
 30
0.0
 40
0.0145833
 41
0.0145833
  0
VERTEX
  8
0
 10
14.5503
 20
15.0462
 30
0.0
 40
0.0145833
 41
0.0145833
  0
VERTEX
  8
0
 10
14.7822
 20
14.9742
 30
0.0
 40
0.0145833
 41
0.0145833
  0
VERTEX
  8
0
 10
14.9922
 20
14.8603
 30
0.0
 40
0.0145833
 41
0.0145833
  0
VERTEX
  8
0
 10
15.1751
 20
14.7093
 30
0.0
 40
0.0145833
 41
0.0145833
  0
VERTEX
  8
0
 10
15.3261
 20
14.5264
 30
0.0
 40
0.0145833
 41
0.0145833
  0
VERTEX
  8
0
 10
15.44
 20
14.3165
 30
0.0
 40
0.0145833
 41
0.0145833
  0
VERTEX
  8
0
 10
15.5121
 20
14.0844
 30
0.0
 40
0.0145833
 41
0.0145833
  0
VERTEX
  8
0
 10
15.5372
 20
13.8976
 30
0.0
 40
0.0145833
 41
0.0145833
  0
VERTEX
  8
0
 10
15.5372
 20
13.8353
 30
0.0
 40
0.0145833
 41
0.0145833
  0
SEQEND
 8
0
  0
POLYLINE
  8
0
 62
     0
 66
     1
 10
0
 20
0
 30
0.0
 70
     1
 40
1.05
 41
1.05
  0
VERTEX
  8
0
 10
11.5265
 20
13.8353
 30
0.0
 40
0.0145833
 41
0.0145833
  0
VERTEX
  8
0
 10
11.5265
 20
13.7731
 30
0.0
 40
0.0145833
 41
0.0145833
  0
VERTEX
  8
0
 10
11.5014
 20
13.5863
 30
0.0
 40
0.0145833
 41
0.0145833
  0
VERTEX
  8
0
 10
11.4293
 20
13.3543
 30
0.0
 40
0.0145833
 41
0.0145833
  0
VERTEX
  8
0
 10
11.3154
 20
13.1444
 30
0.0
 40
0.0145833
 41
0.0145833
  0
VERTEX
  8
0
 10
11.1644
 20
12.9615
 30
0.0
 40
0.0145833
 41
0.0145833
  0
VERTEX
  8
0
 10
10.9816
 20
12.8105
 30
0.0
 40
0.0145833
 41
0.0145833
  0
VERTEX
  8
0
 10
10.7716
 20
12.6966
 30
0.0
 40
0.0145833
 41
0.0145833
  0
VERTEX
  8
0
 10
10.5396
 20
12.6246
 30
0.0
 40
0.0145833
 41
0.0145833
  0
VERTEX
  8
0
 10
10.3528
 20
12.5994
 30
0.0
 40
0.0145833
 41
0.0145833
  0
VERTEX
  8
0
 10
10.2906
 20
12.5994
 30
0.0
 40
0.0145833
 41
0.0145833
  0
VERTEX
  8
0
 10
10.2283
 20
12.5994
 30
0.0
 40
0.0145833
 41
0.0145833
  0
VERTEX
  8
0
 10
10.0414
 20
12.6246
 30
0.0
 40
0.0145833
 41
0.0145833
  0
VERTEX
  8
0
 10
9.80946
 20
12.6966
 30
0.0
 40
0.0145833
 41
0.0145833
  0
VERTEX
  8
0
 10
9.5995
 20
12.8105
 30
0.0
 40
0.0145833
 41
0.0145833
  0
VERTEX
  8
0
 10
9.41661
 20
12.9615
 30
0.0
 40
0.0145833
 41
0.0145833
  0
VERTEX
  8
0
 10
9.26568
 20
13.1444
 30
0.0
 40
0.0145833
 41
0.0145833
  0
VERTEX
  8
0
 10
9.15175
 20
13.3543
 30
0.0
 40
0.0145833
 41
0.0145833
  0
VERTEX
  8
0
 10
9.07969
 20
13.5863
 30
0.0
 40
0.0145833
 41
0.0145833
  0
VERTEX
  8
0
 10
9.05464
 20
13.7731
 30
0.0
 40
0.0145833
 41
0.0145833
  0
VERTEX
  8
0
 10
9.05464
 20
13.8353
 30
0.0
 40
0.0145833
 41
0.0145833
  0
VERTEX
  8
0
 10
9.05464
 20
13.8976
 30
0.0
 40
0.0145833
 41
0.0145833
  0
VERTEX
  8
0
 10
9.07969
 20
14.0844
 30
0.0
 40
0.0145833
 41
0.0145833
  0
VERTEX
  8
0
 10
9.15175
 20
14.3165
 30
0.0
 40
0.0145833
 41
0.0145833
  0
VERTEX
  8
0
 10
9.26568
 20
14.5264
 30
0.0
 40
0.0145833
 41
0.0145833
  0
VERTEX
  8
0
 10
9.41661
 20
14.7093
 30
0.0
 40
0.0145833
 41
0.0145833
  0
VERTEX
  8
0
 10
9.5995
 20
14.8603
 30
0.0
 40
0.0145833
 41
0.0145833
  0
VERTEX
  8
0
 10
9.80946
 20
14.9742
 30
0.0
 40
0.0145833
 41
0.0145833
  0
VERTEX
  8
0
 10
10.0414
 20
15.0462
 30
0.0
 40
0.0145833
 41
0.0145833
  0
VERTEX
  8
0
 10
10.2283
 20
15.0713
 30
0.0
 40
0.0145833
 41
0.0145833
  0
VERTEX
  8
0
 10
10.2906
 20
15.0713
 30
0.0
 40
0.0145833
 41
0.0145833
  0
VERTEX
  8
0
 10
10.3528
 20
15.0713
 30
0.0
 40
0.0145833
 41
0.0145833
  0
VERTEX
  8
0
 10
10.5396
 20
15.0462
 30
0.0
 40
0.0145833
 41
0.0145833
  0
VERTEX
  8
0
 10
10.7716
 20
14.9742
 30
0.0
 40
0.0145833
 41
0.0145833
  0
VERTEX
  8
0
 10
10.9816
 20
14.8603
 30
0.0
 40
0.0145833
 41
0.0145833
  0
VERTEX
  8
0
 10
11.1644
 20
14.7093
 30
0.0
 40
0.0145833
 41
0.0145833
  0
VERTEX
  8
0
 10
11.3154
 20
14.5264
 30
0.0
 40
0.0145833
 41
0.0145833
  0
VERTEX
  8
0
 10
11.4293
 20
14.3165
 30
0.0
 40
0.0145833
 41
0.0145833
  0
VERTEX
  8
0
 10
11.5014
 20
14.0844
 30
0.0
 40
0.0145833
 41
0.0145833
  0
VERTEX
  8
0
 10
11.5265
 20
13.8976
 30
0.0
 40
0.0145833
 41
0.0145833
  0
VERTEX
  8
0
 10
11.5265
 20
13.8353
 30
0.0
 40
0.0145833
 41
0.0145833
  0
SEQEND
 8
0
  0
POLYLINE
  8
0
 62
     0
 66
     1
 10
0
 20
0
 30
0.0
 70
     1
 40
1.05
 41
1.05
  0
VERTEX
  8
0
 10
7.45074
 20
13.8353
 30
0.0
 40
0.0145833
 41
0.0145833
  0
VERTEX
  8
0
 10
7.45074
 20
13.7731
 30
0.0
 40
0.0145833
 41
0.0145833
  0
VERTEX
  8
0
 10
7.42563
 20
13.5863
 30
0.0
 40
0.0145833
 41
0.0145833
  0
VERTEX
  8
0
 10
7.35357
 20
13.3543
 30
0.0
 40
0.0145833
 41
0.0145833
  0
VERTEX
  8
0
 10
7.23964
 20
13.1444
 30
0.0
 40
0.0145833
 41
0.0145833
  0
VERTEX
  8
0
 10
7.08871
 20
12.9615
 30
0.0
 40
0.0145833
 41
0.0145833
  0
VERTEX
  8
0
 10
6.90582
 20
12.8105
 30
0.0
 40
0.0145833
 41
0.0145833
  0
VERTEX
  8
0
 10
6.69586
 20
12.6966
 30
0.0
 40
0.0145833
 41
0.0145833
  0
VERTEX
  8
0
 10
6.46386
 20
12.6246
 30
0.0
 40
0.0145833
 41
0.0145833
  0
VERTEX
  8
0
 10
6.27707
 20
12.5994
 30
0.0
 40
0.0145833
 41
0.0145833
  0
VERTEX
  8
0
 10
6.21485
 20
12.5994
 30
0.0
 40
0.0145833
 41
0.0145833
  0
VERTEX
  8
0
 10
6.15256
 20
12.5994
 30
0.0
 40
0.0145833
 41
0.0145833
  0
VERTEX
  8
0
 10
5.96576
 20
12.6246
 30
0.0
 40
0.0145833
 41
0.0145833
  0
VERTEX
  8
0
 10
5.73378
 20
12.6966
 30
0.0
 40
0.0145833
 41
0.0145833
  0
VERTEX
  8
0
 10
5.52382
 20
12.8105
 30
0.0
 40
0.0145833
 41
0.0145833
  0
VERTEX
  8
0
 10
5.34093
 20
12.9615
 30
0.0
 40
0.0145833
 41
0.0145833
  0
VERTEX
  8
0
 10
5.19
 20
13.1444
 30
0.0
 40
0.0145833
 41
0.0145833
  0
VERTEX
  8
0
 10
5.07607
 20
13.3543
 30
0.0
 40
0.0145833
 41
0.0145833
  0
VERTEX
  8
0
 10
5.00401
 20
13.5863
 30
0.0
 40
0.0145833
 41
0.0145833
  0
VERTEX
  8
0
 10
4.97894
 20
13.7731
 30
0.0
 40
0.0145833
 41
0.0145833
  0
VERTEX
  8
0
 10
4.97894
 20
13.8353
 30
0.0
 40
0.0145833
 41
0.0145833
  0
VERTEX
  8
0
 10
4.97894
 20
13.8976
 30
0.0
 40
0.0145833
 41
0.0145833
  0
VERTEX
  8
0
 10
5.00401
 20
14.0844
 30
0.0
 40
0.0145833
 41
0.0145833
  0
VERTEX
  8
0
 10
5.07607
 20
14.3165
 30
0.0
 40
0.0145833
 41
0.0145833
  0
VERTEX
  8
0
 10
5.19
 20
14.5264
 30
0.0
 40
0.0145833
 41
0.0145833
  0
VERTEX
  8
0
 10
5.34093
 20
14.7093
 30
0.0
 40
0.0145833
 41
0.0145833
  0
VERTEX
  8
0
 10
5.52382
 20
14.8603
 30
0.0
 40
0.0145833
 41
0.0145833
  0
VERTEX
  8
0
 10
5.73378
 20
14.9742
 30
0.0
 40
0.0145833
 41
0.0145833
  0
VERTEX
  8
0
 10
5.96576
 20
15.0462
 30
0.0
 40
0.0145833
 41
0.0145833
  0
VERTEX
  8
0
 10
6.15256
 20
15.0713
 30
0.0
 40
0.0145833
 41
0.0145833
  0
VERTEX
  8
0
 10
6.21485
 20
15.0713
 30
0.0
 40
0.0145833
 41
0.0145833
  0
VERTEX
  8
0
 10
6.27707
 20
15.0713
 30
0.0
 40
0.0145833
 41
0.0145833
  0
VERTEX
  8
0
 10
6.46386
 20
15.0462
 30
0.0
 40
0.0145833
 41
0.0145833
  0
VERTEX
  8
0
 10
6.69586
 20
14.9742
 30
0.0
 40
0.0145833
 41
0.0145833
  0
VERTEX
  8
0
 10
6.90582
 20
14.8603
 30
0.0
 40
0.0145833
 41
0.0145833
  0
VERTEX
  8
0
 10
7.08871
 20
14.7093
 30
0.0
 40
0.0145833
 41
0.0145833
  0
VERTEX
  8
0
 10
7.23964
 20
14.5264
 30
0.0
 40
0.0145833
 41
0.0145833
  0
VERTEX
  8
0
 10
7.35357
 20
14.3165
 30
0.0
 40
0.0145833
 41
0.0145833
  0
VERTEX
  8
0
 10
7.42563
 20
14.0844
 30
0.0
 40
0.0145833
 41
0.0145833
  0
VERTEX
  8
0
 10
7.45074
 20
13.8976
 30
0.0
 40
0.0145833
 41
0.0145833
  0
VERTEX
  8
0
 10
7.45074
 20
13.8353
 30
0.0
 40
0.0145833
 41
0.0145833
  0
SEQEND
 8
0
  0
POLYLINE
  8
0
 62
     0
 66
     1
 10
0
 20
0
 30
0.0
 70
     1
 40
1.05
 41
1.05
  0
VERTEX
  8
0
 10
3.47217
 20
13.8353
 30
0.0
 40
0.0145833
 41
0.0145833
  0
VERTEX
  8
0
 10
3.47217
 20
13.7731
 30
0.0
 40
0.0145833
 41
0.0145833
  0
VERTEX
  8
0
 10
3.44706
 20
13.5863
 30
0.0
 40
0.0145833
 41
0.0145833
  0
VERTEX
  8
0
 10
3.375
 20
13.3543
 30
0.0
 40
0.0145833
 41
0.0145833
  0
VERTEX
  8
0
 10
3.26107
 20
13.1444
 30
0.0
 40
0.0145833
 41
0.0145833
  0
VERTEX
  8
0
 10
3.11014
 20
12.9615
 30
0.0
 40
0.0145833
 41
0.0145833
  0
VERTEX
  8
0
 10
2.92725
 20
12.8105
 30
0.0
 40
0.0145833
 41
0.0145833
  0
VERTEX
  8
0
 10
2.71729
 20
12.6966
 30
0.0
 40
0.0145833
 41
0.0145833
  0
VERTEX
  8
0
 10
2.48529
 20
12.6246
 30
0.0
 40
0.0145833
 41
0.0145833
  0
VERTEX
  8
0
 10
2.2985
 20
12.5994
 30
0.0
 40
0.0145833
 41
0.0145833
  0
VERTEX
  8
0
 10
2.23628
 20
12.5994
 30
0.0
 40
0.0145833
 41
0.0145833
  0
VERTEX
  8
0
 10
2.17399
 20
12.5994
 30
0.0
 40
0.0145833
 41
0.0145833
  0
VERTEX
  8
0
 10
1.98719
 20
12.6246
 30
0.0
 40
0.0145833
 41
0.0145833
  0
VERTEX
  8
0
 10
1.75521
 20
12.6966
 30
0.0
 40
0.0145833
 41
0.0145833
  0
VERTEX
  8
0
 10
1.54525
 20
12.8105
 30
0.0
 40
0.0145833
 41
0.0145833
  0
VERTEX
  8
0
 10
1.36236
 20
12.9615
 30
0.0
 40
0.0145833
 41
0.0145833
  0
VERTEX
  8
0
 10
1.21143
 20
13.1444
 30
0.0
 40
0.0145833
 41
0.0145833
  0
VERTEX
  8
0
 10
1.09749
 20
13.3543
 30
0.0
 40
0.0145833
 41
0.0145833
  0
VERTEX
  8
0
 10
1.02544
 20
13.5863
 30
0.0
 40
0.0145833
 41
0.0145833
  0
VERTEX
  8
0
 10
1.00038
 20
13.7731
 30
0.0
 40
0.0145833
 41
0.0145833
  0
VERTEX
  8
0
 10
1.00038
 20
13.8353
 30
0.0
 40
0.0145833
 41
0.0145833
  0
VERTEX
  8
0
 10
1.00038
 20
13.8976
 30
0.0
 40
0.0145833
 41
0.0145833
  0
VERTEX
  8
0
 10
1.02544
 20
14.0844
 30
0.0
 40
0.0145833
 41
0.0145833
  0
VERTEX
  8
0
 10
1.09749
 20
14.3165
 30
0.0
 40
0.0145833
 41
0.0145833
  0
VERTEX
  8
0
 10
1.21143
 20
14.5264
 30
0.0
 40
0.0145833
 41
0.0145833
  0
VERTEX
  8
0
 10
1.36236
 20
14.7093
 30
0.0
 40
0.0145833
 41
0.0145833
  0
VERTEX
  8
0
 10
1.54525
 20
14.8603
 30
0.0
 40
0.0145833
 41
0.0145833
  0
VERTEX
  8
0
 10
1.75521
 20
14.9742
 30
0.0
 40
0.0145833
 41
0.0145833
  0
VERTEX
  8
0
 10
1.98719
 20
15.0462
 30
0.0
 40
0.0145833
 41
0.0145833
  0
VERTEX
  8
0
 10
2.17399
 20
15.0713
 30
0.0
 40
0.0145833
 41
0.0145833
  0
VERTEX
  8
0
 10
2.23628
 20
15.0713
 30
0.0
 40
0.0145833
 41
0.0145833
  0
VERTEX
  8
0
 10
2.2985
 20
15.0713
 30
0.0
 40
0.0145833
 41
0.0145833
  0
VERTEX
  8
0
 10
2.48529
 20
15.0462
 30
0.0
 40
0.0145833
 41
0.0145833
  0
VERTEX
  8
0
 10
2.71729
 20
14.9742
 30
0.0
 40
0.0145833
 41
0.0145833
  0
VERTEX
  8
0
 10
2.92725
 20
14.8603
 30
0.0
 40
0.0145833
 41
0.0145833
  0
VERTEX
  8
0
 10
3.11014
 20
14.7093
 30
0.0
 40
0.0145833
 41
0.0145833
  0
VERTEX
  8
0
 10
3.26107
 20
14.5264
 30
0.0
 40
0.0145833
 41
0.0145833
  0
VERTEX
  8
0
 10
3.375
 20
14.3165
 30
0.0
 40
0.0145833
 41
0.0145833
  0
VERTEX
  8
0
 10
3.44706
 20
14.0844
 30
0.0
 40
0.0145833
 41
0.0145833
  0
VERTEX
  8
0
 10
3.47217
 20
13.8976
 30
0.0
 40
0.0145833
 41
0.0145833
  0
VERTEX
  8
0
 10
3.47217
 20
13.8353
 30
0.0
 40
0.0145833
 41
0.0145833
  0
SEQEND
 8
0
  0
POLYLINE
  8
0
 62
     0
 66
     1
 10
0
 20
0
 30
0.0
 70
     1
 40
1.05
 41
1.05
  0
VERTEX
  8
0
 10
3.47217
 20
7.26921
 30
0.0
 40
0.0145833
 41
0.0145833
  0
VERTEX
  8
0
 10
3.47217
 20
7.20697
 30
0.0
 40
0.0145833
 41
0.0145833
  0
VERTEX
  8
0
 10
3.44706
 20
7.02018
 30
0.0
 40
0.0145833
 41
0.0145833
  0
VERTEX
  8
0
 10
3.375
 20
6.78819
 30
0.0
 40
0.0145833
 41
0.0145833
  0
VERTEX
  8
0
 10
3.26107
 20
6.57824
 30
0.0
 40
0.0145833
 41
0.0145833
  0
VERTEX
  8
0
 10
3.11014
 20
6.39535
 30
0.0
 40
0.0145833
 41
0.0145833
  0
VERTEX
  8
0
 10
2.92725
 20
6.24442
 30
0.0
 40
0.0145833
 41
0.0145833
  0
VERTEX
  8
0
 10
2.71729
 20
6.13049
 30
0.0
 40
0.0145833
 41
0.0145833
  0
VERTEX
  8
0
 10
2.48529
 20
6.05843
 30
0.0
 40
0.0145833
 41
0.0145833
  0
VERTEX
  8
0
 10
2.2985
 20
6.03331
 30
0.0
 40
0.0145833
 41
0.0145833
  0
VERTEX
  8
0
 10
2.23628
 20
6.03331
 30
0.0
 40
0.0145833
 41
0.0145833
  0
VERTEX
  8
0
 10
2.17399
 20
6.03331
 30
0.0
 40
0.0145833
 41
0.0145833
  0
VERTEX
  8
0
 10
1.98719
 20
6.05843
 30
0.0
 40
0.0145833
 41
0.0145833
  0
VERTEX
  8
0
 10
1.75521
 20
6.13049
 30
0.0
 40
0.0145833
 41
0.0145833
  0
VERTEX
  8
0
 10
1.54525
 20
6.24442
 30
0.0
 40
0.0145833
 41
0.0145833
  0
VERTEX
  8
0
 10
1.36236
 20
6.39535
 30
0.0
 40
0.0145833
 41
0.0145833
  0
VERTEX
  8
0
 10
1.21143
 20
6.57824
 30
0.0
 40
0.0145833
 41
0.0145833
  0
VERTEX
  8
0
 10
1.09749
 20
6.78819
 30
0.0
 40
0.0145833
 41
0.0145833
  0
VERTEX
  8
0
 10
1.02544
 20
7.02018
 30
0.0
 40
0.0145833
 41
0.0145833
  0
VERTEX
  8
0
 10
1.00038
 20
7.20697
 30
0.0
 40
0.0145833
 41
0.0145833
  0
VERTEX
  8
0
 10
1.00038
 20
7.26921
 30
0.0
 40
0.0145833
 41
0.0145833
  0
VERTEX
  8
0
 10
1.00038
 20
7.33149
 30
0.0
 40
0.0145833
 41
0.0145833
  0
VERTEX
  8
0
 10
1.02544
 20
7.51828
 30
0.0
 40
0.0145833
 41
0.0145833
  0
VERTEX
  8
0
 10
1.09749
 20
7.75028
 30
0.0
 40
0.0145833
 41
0.0145833
  0
VERTEX
  8
0
 10
1.21143
 20
7.96024
 30
0.0
 40
0.0145833
 41
0.0145833
  0
VERTEX
  8
0
 10
1.36236
 20
8.14312
 30
0.0
 40
0.0145833
 41
0.0145833
  0
VERTEX
  8
0
 10
1.54525
 20
8.29406
 30
0.0
 40
0.0145833
 41
0.0145833
  0
VERTEX
  8
0
 10
1.75521
 20
8.40799
 30
0.0
 40
0.0145833
 41
0.0145833
  0
VERTEX
  8
0
 10
1.98719
 20
8.48004
 30
0.0
 40
0.0145833
 41
0.0145833
  0
VERTEX
  8
0
 10
2.17399
 20
8.5051
 30
0.0
 40
0.0145833
 41
0.0145833
  0
VERTEX
  8
0
 10
2.23628
 20
8.5051
 30
0.0
 40
0.0145833
 41
0.0145833
  0
VERTEX
  8
0
 10
2.2985
 20
8.5051
 30
0.0
 40
0.0145833
 41
0.0145833
  0
VERTEX
  8
0
 10
2.48529
 20
8.48004
 30
0.0
 40
0.0145833
 41
0.0145833
  0
VERTEX
  8
0
 10
2.71729
 20
8.40799
 30
0.0
 40
0.0145833
 41
0.0145833
  0
VERTEX
  8
0
 10
2.92725
 20
8.29406
 30
0.0
 40
0.0145833
 41
0.0145833
  0
VERTEX
  8
0
 10
3.11014
 20
8.14312
 30
0.0
 40
0.0145833
 41
0.0145833
  0
VERTEX
  8
0
 10
3.26107
 20
7.96024
 30
0.0
 40
0.0145833
 41
0.0145833
  0
VERTEX
  8
0
 10
3.375
 20
7.75028
 30
0.0
 40
0.0145833
 41
0.0145833
  0
VERTEX
  8
0
 10
3.44706
 20
7.51828
 30
0.0
 40
0.0145833
 41
0.0145833
  0
VERTEX
  8
0
 10
3.47217
 20
7.33149
 30
0.0
 40
0.0145833
 41
0.0145833
  0
VERTEX
  8
0
 10
3.47217
 20
7.26921
 30
0.0
 40
0.0145833
 41
0.0145833
  0
SEQEND
 8
0
  0
POLYLINE
  8
0
 62
     0
 66
     1
 10
0
 20
0
 30
0.0
 70
     1
 40
1.05
 41
1.05
  0
VERTEX
  8
0
 10
7.45074
 20
7.26921
 30
0.0
 40
0.0145833
 41
0.0145833
  0
VERTEX
  8
0
 10
7.45074
 20
7.20697
 30
0.0
 40
0.0145833
 41
0.0145833
  0
VERTEX
  8
0
 10
7.42563
 20
7.02018
 30
0.0
 40
0.0145833
 41
0.0145833
  0
VERTEX
  8
0
 10
7.35357
 20
6.78819
 30
0.0
 40
0.0145833
 41
0.0145833
  0
VERTEX
  8
0
 10
7.23964
 20
6.57824
 30
0.0
 40
0.0145833
 41
0.0145833
  0
VERTEX
  8
0
 10
7.08871
 20
6.39535
 30
0.0
 40
0.0145833
 41
0.0145833
  0
VERTEX
  8
0
 10
6.90582
 20
6.24442
 30
0.0
 40
0.0145833
 41
0.0145833
  0
VERTEX
  8
0
 10
6.69586
 20
6.13049
 30
0.0
 40
0.0145833
 41
0.0145833
  0
VERTEX
  8
0
 10
6.46386
 20
6.05843
 30
0.0
 40
0.0145833
 41
0.0145833
  0
VERTEX
  8
0
 10
6.27707
 20
6.03331
 30
0.0
 40
0.0145833
 41
0.0145833
  0
VERTEX
  8
0
 10
6.21485
 20
6.03331
 30
0.0
 40
0.0145833
 41
0.0145833
  0
VERTEX
  8
0
 10
6.15256
 20
6.03331
 30
0.0
 40
0.0145833
 41
0.0145833
  0
VERTEX
  8
0
 10
5.96576
 20
6.05843
 30
0.0
 40
0.0145833
 41
0.0145833
  0
VERTEX
  8
0
 10
5.73378
 20
6.13049
 30
0.0
 40
0.0145833
 41
0.0145833
  0
VERTEX
  8
0
 10
5.52382
 20
6.24442
 30
0.0
 40
0.0145833
 41
0.0145833
  0
VERTEX
  8
0
 10
5.34093
 20
6.39535
 30
0.0
 40
0.0145833
 41
0.0145833
  0
VERTEX
  8
0
 10
5.19
 20
6.57824
 30
0.0
 40
0.0145833
 41
0.0145833
  0
VERTEX
  8
0
 10
5.07607
 20
6.78819
 30
0.0
 40
0.0145833
 41
0.0145833
  0
VERTEX
  8
0
 10
5.00401
 20
7.02018
 30
0.0
 40
0.0145833
 41
0.0145833
  0
VERTEX
  8
0
 10
4.97894
 20
7.20697
 30
0.0
 40
0.0145833
 41
0.0145833
  0
VERTEX
  8
0
 10
4.97894
 20
7.26921
 30
0.0
 40
0.0145833
 41
0.0145833
  0
VERTEX
  8
0
 10
4.97894
 20
7.33149
 30
0.0
 40
0.0145833
 41
0.0145833
  0
VERTEX
  8
0
 10
5.00401
 20
7.51828
 30
0.0
 40
0.0145833
 41
0.0145833
  0
VERTEX
  8
0
 10
5.07607
 20
7.75028
 30
0.0
 40
0.0145833
 41
0.0145833
  0
VERTEX
  8
0
 10
5.19
 20
7.96024
 30
0.0
 40
0.0145833
 41
0.0145833
  0
VERTEX
  8
0
 10
5.34093
 20
8.14312
 30
0.0
 40
0.0145833
 41
0.0145833
  0
VERTEX
  8
0
 10
5.52382
 20
8.29406
 30
0.0
 40
0.0145833
 41
0.0145833
  0
VERTEX
  8
0
 10
5.73378
 20
8.40799
 30
0.0
 40
0.0145833
 41
0.0145833
  0
VERTEX
  8
0
 10
5.96576
 20
8.48004
 30
0.0
 40
0.0145833
 41
0.0145833
  0
VERTEX
  8
0
 10
6.15256
 20
8.5051
 30
0.0
 40
0.0145833
 41
0.0145833
  0
VERTEX
  8
0
 10
6.21485
 20
8.5051
 30
0.0
 40
0.0145833
 41
0.0145833
  0
VERTEX
  8
0
 10
6.27707
 20
8.5051
 30
0.0
 40
0.0145833
 41
0.0145833
  0
VERTEX
  8
0
 10
6.46386
 20
8.48004
 30
0.0
 40
0.0145833
 41
0.0145833
  0
VERTEX
  8
0
 10
6.69586
 20
8.40799
 30
0.0
 40
0.0145833
 41
0.0145833
  0
VERTEX
  8
0
 10
6.90582
 20
8.29406
 30
0.0
 40
0.0145833
 41
0.0145833
  0
VERTEX
  8
0
 10
7.08871
 20
8.14312
 30
0.0
 40
0.0145833
 41
0.0145833
  0
VERTEX
  8
0
 10
7.23964
 20
7.96024
 30
0.0
 40
0.0145833
 41
0.0145833
  0
VERTEX
  8
0
 10
7.35357
 20
7.75028
 30
0.0
 40
0.0145833
 41
0.0145833
  0
VERTEX
  8
0
 10
7.42563
 20
7.51828
 30
0.0
 40
0.0145833
 41
0.0145833
  0
VERTEX
  8
0
 10
7.45074
 20
7.33149
 30
0.0
 40
0.0145833
 41
0.0145833
  0
VERTEX
  8
0
 10
7.45074
 20
7.26921
 30
0.0
 40
0.0145833
 41
0.0145833
  0
SEQEND
 8
0
  0
POLYLINE
  8
0
 62
     0
 66
     1
 10
0
 20
0
 30
0.0
 70
     1
 40
1.05
 41
1.05
  0
VERTEX
  8
0
 10
11.5265
 20
7.26921
 30
0.0
 40
0.0145833
 41
0.0145833
  0
VERTEX
  8
0
 10
11.5265
 20
7.20697
 30
0.0
 40
0.0145833
 41
0.0145833
  0
VERTEX
  8
0
 10
11.5014
 20
7.02018
 30
0.0
 40
0.0145833
 41
0.0145833
  0
VERTEX
  8
0
 10
11.4293
 20
6.78819
 30
0.0
 40
0.0145833
 41
0.0145833
  0
VERTEX
  8
0
 10
11.3154
 20
6.57824
 30
0.0
 40
0.0145833
 41
0.0145833
  0
VERTEX
  8
0
 10
11.1644
 20
6.39535
 30
0.0
 40
0.0145833
 41
0.0145833
  0
VERTEX
  8
0
 10
10.9816
 20
6.24442
 30
0.0
 40
0.0145833
 41
0.0145833
  0
VERTEX
  8
0
 10
10.7716
 20
6.13049
 30
0.0
 40
0.0145833
 41
0.0145833
  0
VERTEX
  8
0
 10
10.5396
 20
6.05843
 30
0.0
 40
0.0145833
 41
0.0145833
  0
VERTEX
  8
0
 10
10.3528
 20
6.03331
 30
0.0
 40
0.0145833
 41
0.0145833
  0
VERTEX
  8
0
 10
10.2906
 20
6.03331
 30
0.0
 40
0.0145833
 41
0.0145833
  0
VERTEX
  8
0
 10
10.2283
 20
6.03331
 30
0.0
 40
0.0145833
 41
0.0145833
  0
VERTEX
  8
0
 10
10.0414
 20
6.05843
 30
0.0
 40
0.0145833
 41
0.0145833
  0
VERTEX
  8
0
 10
9.80946
 20
6.13049
 30
0.0
 40
0.0145833
 41
0.0145833
  0
VERTEX
  8
0
 10
9.5995
 20
6.24442
 30
0.0
 40
0.0145833
 41
0.0145833
  0
VERTEX
  8
0
 10
9.41661
 20
6.39535
 30
0.0
 40
0.0145833
 41
0.0145833
  0
VERTEX
  8
0
 10
9.26568
 20
6.57824
 30
0.0
 40
0.0145833
 41
0.0145833
  0
VERTEX
  8
0
 10
9.15175
 20
6.78819
 30
0.0
 40
0.0145833
 41
0.0145833
  0
VERTEX
  8
0
 10
9.07969
 20
7.02018
 30
0.0
 40
0.0145833
 41
0.0145833
  0
VERTEX
  8
0
 10
9.05464
 20
7.20697
 30
0.0
 40
0.0145833
 41
0.0145833
  0
VERTEX
  8
0
 10
9.05464
 20
7.26921
 30
0.0
 40
0.0145833
 41
0.0145833
  0
VERTEX
  8
0
 10
9.05464
 20
7.33149
 30
0.0
 40
0.0145833
 41
0.0145833
  0
VERTEX
  8
0
 10
9.07969
 20
7.51828
 30
0.0
 40
0.0145833
 41
0.0145833
  0
VERTEX
  8
0
 10
9.15175
 20
7.75028
 30
0.0
 40
0.0145833
 41
0.0145833
  0
VERTEX
  8
0
 10
9.26568
 20
7.96024
 30
0.0
 40
0.0145833
 41
0.0145833
  0
VERTEX
  8
0
 10
9.41661
 20
8.14312
 30
0.0
 40
0.0145833
 41
0.0145833
  0
VERTEX
  8
0
 10
9.5995
 20
8.29406
 30
0.0
 40
0.0145833
 41
0.0145833
  0
VERTEX
  8
0
 10
9.80946
 20
8.40799
 30
0.0
 40
0.0145833
 41
0.0145833
  0
VERTEX
  8
0
 10
10.0414
 20
8.48004
 30
0.0
 40
0.0145833
 41
0.0145833
  0
VERTEX
  8
0
 10
10.2283
 20
8.5051
 30
0.0
 40
0.0145833
 41
0.0145833
  0
VERTEX
  8
0
 10
10.2906
 20
8.5051
 30
0.0
 40
0.0145833
 41
0.0145833
  0
VERTEX
  8
0
 10
10.3528
 20
8.5051
 30
0.0
 40
0.0145833
 41
0.0145833
  0
VERTEX
  8
0
 10
10.5396
 20
8.48004
 30
0.0
 40
0.0145833
 41
0.0145833
  0
VERTEX
  8
0
 10
10.7716
 20
8.40799
 30
0.0
 40
0.0145833
 41
0.0145833
  0
VERTEX
  8
0
 10
10.9816
 20
8.29406
 30
0.0
 40
0.0145833
 41
0.0145833
  0
VERTEX
  8
0
 10
11.1644
 20
8.14312
 30
0.0
 40
0.0145833
 41
0.0145833
  0
VERTEX
  8
0
 10
11.3154
 20
7.96024
 30
0.0
 40
0.0145833
 41
0.0145833
  0
VERTEX
  8
0
 10
11.4293
 20
7.75028
 30
0.0
 40
0.0145833
 41
0.0145833
  0
VERTEX
  8
0
 10
11.5014
 20
7.51828
 30
0.0
 40
0.0145833
 41
0.0145833
  0
VERTEX
  8
0
 10
11.5265
 20
7.33149
 30
0.0
 40
0.0145833
 41
0.0145833
  0
VERTEX
  8
0
 10
11.5265
 20
7.26921
 30
0.0
 40
0.0145833
 41
0.0145833
  0
SEQEND
 8
0
  0
POLYLINE
  8
0
 62
     0
 66
     1
 10
0
 20
0
 30
0.0
 70
     1
 40
1.05
 41
1.05
  0
VERTEX
  8
0
 10
15.5372
 20
7.26921
 30
0.0
 40
0.0145833
 41
0.0145833
  0
VERTEX
  8
0
 10
15.5372
 20
7.20697
 30
0.0
 40
0.0145833
 41
0.0145833
  0
VERTEX
  8
0
 10
15.5121
 20
7.02018
 30
0.0
 40
0.0145833
 41
0.0145833
  0
VERTEX
  8
0
 10
15.44
 20
6.78819
 30
0.0
 40
0.0145833
 41
0.0145833
  0
VERTEX
  8
0
 10
15.3261
 20
6.57824
 30
0.0
 40
0.0145833
 41
0.0145833
  0
VERTEX
  8
0
 10
15.1751
 20
6.39535
 30
0.0
 40
0.0145833
 41
0.0145833
  0
VERTEX
  8
0
 10
14.9922
 20
6.24442
 30
0.0
 40
0.0145833
 41
0.0145833
  0
VERTEX
  8
0
 10
14.7822
 20
6.13049
 30
0.0
 40
0.0145833
 41
0.0145833
  0
VERTEX
  8
0
 10
14.5503
 20
6.05843
 30
0.0
 40
0.0145833
 41
0.0145833
  0
VERTEX
  8
0
 10
14.3635
 20
6.03331
 30
0.0
 40
0.0145833
 41
0.0145833
  0
VERTEX
  8
0
 10
14.3012
 20
6.03331
 30
0.0
 40
0.0145833
 41
0.0145833
  0
VERTEX
  8
0
 10
14.239
 20
6.03331
 30
0.0
 40
0.0145833
 41
0.0145833
  0
VERTEX
  8
0
 10
14.0522
 20
6.05843
 30
0.0
 40
0.0145833
 41
0.0145833
  0
VERTEX
  8
0
 10
13.8202
 20
6.13049
 30
0.0
 40
0.0145833
 41
0.0145833
  0
VERTEX
  8
0
 10
13.6102
 20
6.24442
 30
0.0
 40
0.0145833
 41
0.0145833
  0
VERTEX
  8
0
 10
13.4274
 20
6.39535
 30
0.0
 40
0.0145833
 41
0.0145833
  0
VERTEX
  8
0
 10
13.2764
 20
6.57824
 30
0.0
 40
0.0145833
 41
0.0145833
  0
VERTEX
  8
0
 10
13.1625
 20
6.78819
 30
0.0
 40
0.0145833
 41
0.0145833
  0
VERTEX
  8
0
 10
13.0904
 20
7.02018
 30
0.0
 40
0.0145833
 41
0.0145833
  0
VERTEX
  8
0
 10
13.0654
 20
7.20697
 30
0.0
 40
0.0145833
 41
0.0145833
  0
VERTEX
  8
0
 10
13.0654
 20
7.26921
 30
0.0
 40
0.0145833
 41
0.0145833
  0
VERTEX
  8
0
 10
13.0654
 20
7.33149
 30
0.0
 40
0.0145833
 41
0.0145833
  0
VERTEX
  8
0
 10
13.0904
 20
7.51828
 30
0.0
 40
0.0145833
 41
0.0145833
  0
VERTEX
  8
0
 10
13.1625
 20
7.75028
 30
0.0
 40
0.0145833
 41
0.0145833
  0
VERTEX
  8
0
 10
13.2764
 20
7.96024
 30
0.0
 40
0.0145833
 41
0.0145833
  0
VERTEX
  8
0
 10
13.4274
 20
8.14312
 30
0.0
 40
0.0145833
 41
0.0145833
  0
VERTEX
  8
0
 10
13.6102
 20
8.29406
 30
0.0
 40
0.0145833
 41
0.0145833
  0
VERTEX
  8
0
 10
13.8202
 20
8.40799
 30
0.0
 40
0.0145833
 41
0.0145833
  0
VERTEX
  8
0
 10
14.0522
 20
8.48004
 30
0.0
 40
0.0145833
 41
0.0145833
  0
VERTEX
  8
0
 10
14.239
 20
8.5051
 30
0.0
 40
0.0145833
 41
0.0145833
  0
VERTEX
  8
0
 10
14.3012
 20
8.5051
 30
0.0
 40
0.0145833
 41
0.0145833
  0
VERTEX
  8
0
 10
14.3635
 20
8.5051
 30
0.0
 40
0.0145833
 41
0.0145833
  0
VERTEX
  8
0
 10
14.5503
 20
8.48004
 30
0.0
 40
0.0145833
 41
0.0145833
  0
VERTEX
  8
0
 10
14.7822
 20
8.40799
 30
0.0
 40
0.0145833
 41
0.0145833
  0
VERTEX
  8
0
 10
14.9922
 20
8.29406
 30
0.0
 40
0.0145833
 41
0.0145833
  0
VERTEX
  8
0
 10
15.1751
 20
8.14312
 30
0.0
 40
0.0145833
 41
0.0145833
  0
VERTEX
  8
0
 10
15.3261
 20
7.96024
 30
0.0
 40
0.0145833
 41
0.0145833
  0
VERTEX
  8
0
 10
15.44
 20
7.75028
 30
0.0
 40
0.0145833
 41
0.0145833
  0
VERTEX
  8
0
 10
15.5121
 20
7.51828
 30
0.0
 40
0.0145833
 41
0.0145833
  0
VERTEX
  8
0
 10
15.5372
 20
7.33149
 30
0.0
 40
0.0145833
 41
0.0145833
  0
VERTEX
  8
0
 10
15.5372
 20
7.26921
 30
0.0
 40
0.0145833
 41
0.0145833
  0
SEQEND
 8
0
  0
POLYLINE
  8
0
 62
     0
 66
     1
 10
0
 20
0
 30
0.0
 70
     1
 40
1.05
 41
1.05
  0
VERTEX
  8
0
 10
3.47217
 20
33.5201
 30
0.0
 40
0.0145833
 41
0.0145833
  0
VERTEX
  8
0
 10
3.47217
 20
33.4579
 30
0.0
 40
0.0145833
 41
0.0145833
  0
VERTEX
  8
0
 10
3.44706
 20
33.2711
 30
0.0
 40
0.0145833
 41
0.0145833
  0
VERTEX
  8
0
 10
3.375
 20
33.0392
 30
0.0
 40
0.0145833
 41
0.0145833
  0
VERTEX
  8
0
 10
3.26107
 20
32.8292
 30
0.0
 40
0.0145833
 41
0.0145833
  0
VERTEX
  8
0
 10
3.11014
 20
32.6463
 30
0.0
 40
0.0145833
 41
0.0145833
  0
VERTEX
  8
0
 10
2.92725
 20
32.4953
 30
0.0
 40
0.0145833
 41
0.0145833
  0
VERTEX
  8
0
 10
2.71729
 20
32.3814
 30
0.0
 40
0.0145833
 41
0.0145833
  0
VERTEX
  8
0
 10
2.48529
 20
32.3093
 30
0.0
 40
0.0145833
 41
0.0145833
  0
VERTEX
  8
0
 10
2.2985
 20
32.2842
 30
0.0
 40
0.0145833
 41
0.0145833
  0
VERTEX
  8
0
 10
2.23628
 20
32.2842
 30
0.0
 40
0.0145833
 41
0.0145833
  0
VERTEX
  8
0
 10
2.17399
 20
32.2842
 30
0.0
 40
0.0145833
 41
0.0145833
  0
VERTEX
  8
0
 10
1.98719
 20
32.3093
 30
0.0
 40
0.0145833
 41
0.0145833
  0
VERTEX
  8
0
 10
1.75521
 20
32.3814
 30
0.0
 40
0.0145833
 41
0.0145833
  0
VERTEX
  8
0
 10
1.54525
 20
32.4953
 30
0.0
 40
0.0145833
 41
0.0145833
  0
VERTEX
  8
0
 10
1.36236
 20
32.6463
 30
0.0
 40
0.0145833
 41
0.0145833
  0
VERTEX
  8
0
 10
1.21143
 20
32.8292
 30
0.0
 40
0.0145833
 41
0.0145833
  0
VERTEX
  8
0
 10
1.09749
 20
33.0392
 30
0.0
 40
0.0145833
 41
0.0145833
  0
VERTEX
  8
0
 10
1.02544
 20
33.2711
 30
0.0
 40
0.0145833
 41
0.0145833
  0
VERTEX
  8
0
 10
1.00038
 20
33.4579
 30
0.0
 40
0.0145833
 41
0.0145833
  0
VERTEX
  8
0
 10
1.00038
 20
33.5201
 30
0.0
 40
0.0145833
 41
0.0145833
  0
VERTEX
  8
0
 10
1.00038
 20
33.5824
 30
0.0
 40
0.0145833
 41
0.0145833
  0
VERTEX
  8
0
 10
1.02544
 20
33.7693
 30
0.0
 40
0.0145833
 41
0.0145833
  0
VERTEX
  8
0
 10
1.09749
 20
34.0013
 30
0.0
 40
0.0145833
 41
0.0145833
  0
VERTEX
  8
0
 10
1.21143
 20
34.2112
 30
0.0
 40
0.0145833
 41
0.0145833
  0
VERTEX
  8
0
 10
1.36236
 20
34.3942
 30
0.0
 40
0.0145833
 41
0.0145833
  0
VERTEX
  8
0
 10
1.54525
 20
34.545
 30
0.0
 40
0.0145833
 41
0.0145833
  0
VERTEX
  8
0
 10
1.75521
 20
34.659
 30
0.0
 40
0.0145833
 41
0.0145833
  0
VERTEX
  8
0
 10
1.98719
 20
34.731
 30
0.0
 40
0.0145833
 41
0.0145833
  0
VERTEX
  8
0
 10
2.17399
 20
34.7561
 30
0.0
 40
0.0145833
 41
0.0145833
  0
VERTEX
  8
0
 10
2.23628
 20
34.7561
 30
0.0
 40
0.0145833
 41
0.0145833
  0
VERTEX
  8
0
 10
2.2985
 20
34.7561
 30
0.0
 40
0.0145833
 41
0.0145833
  0
VERTEX
  8
0
 10
2.48529
 20
34.731
 30
0.0
 40
0.0145833
 41
0.0145833
  0
VERTEX
  8
0
 10
2.71729
 20
34.659
 30
0.0
 40
0.0145833
 41
0.0145833
  0
VERTEX
  8
0
 10
2.92725
 20
34.545
 30
0.0
 40
0.0145833
 41
0.0145833
  0
VERTEX
  8
0
 10
3.11014
 20
34.3942
 30
0.0
 40
0.0145833
 41
0.0145833
  0
VERTEX
  8
0
 10
3.26107
 20
34.2112
 30
0.0
 40
0.0145833
 41
0.0145833
  0
VERTEX
  8
0
 10
3.375
 20
34.0013
 30
0.0
 40
0.0145833
 41
0.0145833
  0
VERTEX
  8
0
 10
3.44706
 20
33.7693
 30
0.0
 40
0.0145833
 41
0.0145833
  0
VERTEX
  8
0
 10
3.47217
 20
33.5824
 30
0.0
 40
0.0145833
 41
0.0145833
  0
VERTEX
  8
0
 10
3.47217
 20
33.5201
 30
0.0
 40
0.0145833
 41
0.0145833
  0
SEQEND
 8
0
  0
ENDSEC
  0
EOF
