<?xml version="1.0" encoding="UTF-8" standalone="no"?>
<!DOCTYPE svg PUBLIC "-//W3C//DTD SVG 1.1//EN" "http://www.w3.org/Graphics/SVG/1.1/DTD/svg11.dtd">
<svg width="100%" height="100%" viewBox="0 0 1589 5061" version="1.1" xmlns="http://www.w3.org/2000/svg" xmlns:xlink="http://www.w3.org/1999/xlink" xml:space="preserve" xmlns:serif="http://www.serif.com/" style="fill-rule:evenodd;clip-rule:evenodd;stroke-linejoin:round;stroke-miterlimit:2;">
    <g transform="matrix(1,0,0,1,-8364.43,-6011.12)">
        <g transform="matrix(0,-13.8889,-13.8889,0,8663.2,6065.8)">
            <path d="M-4.536,-4.535C-7.04,-4.535 -9.071,-2.504 -9.071,0.001C-9.071,2.506 -7.04,4.536 -4.536,4.536C-2.031,4.536 0,2.506 0,0.001C0,-2.504 -2.031,-4.535 -4.536,-4.535" style="fill:none;fill-rule:nonzero;stroke:rgb(0,0,128);stroke-width:0.1px;"/>
        </g>
        <g transform="matrix(0,-13.8889,-13.8889,0,8663.19,10888.6)">
            <path d="M-4.536,-4.536C-7.041,-4.536 -9.07,-2.505 -9.07,0.001C-9.07,2.506 -7.041,4.536 -4.536,4.536C-2.031,4.536 -0,2.506 -0,0.001C-0,-2.505 -2.031,-4.536 -4.536,-4.536" style="fill:none;fill-rule:nonzero;stroke:black;stroke-width:0.1px;"/>
        </g>
        <g transform="matrix(0,-13.8889,-13.8889,0,9663.22,6065.8)">
            <path d="M-4.536,-4.535C-5.881,-4.535 -7.089,-3.949 -7.92,-3.019C-8.636,-2.217 -9.071,-1.159 -9.071,0.001C-9.071,2.506 -7.04,4.536 -4.536,4.536C-2.031,4.536 0,2.506 0,0.001C0,-2.504 -2.031,-4.535 -4.536,-4.535" style="fill:none;fill-rule:nonzero;stroke:black;stroke-width:0.1px;"/>
        </g>
        <g transform="matrix(0,-13.8889,-13.8889,0,9663.21,10888.6)">
            <path d="M-4.536,-4.536C-7.041,-4.536 -9.07,-2.505 -9.07,0.001C-9.07,2.506 -7.041,4.536 -4.536,4.536C-2.031,4.536 -0,2.506 -0,0.001C-0,-2.505 -2.031,-4.536 -4.536,-4.536" style="fill:none;fill-rule:nonzero;stroke:black;stroke-width:0.1px;"/>
        </g>
        <g transform="matrix(1.32608,0,0,2.28278,7372.83,4864.53)">
            <rect x="748.289" y="502.585" width="1196.47" height="2216.18" style="fill:none;stroke:black;stroke-width:0.74px;stroke-linecap:round;stroke-miterlimit:1.5;"/>
        </g>
        <g transform="matrix(3.33333,0,0,3.33333,2103.76,3216.34)">
            <circle cx="1946.38" cy="1088.22" r="35.236" style="fill:rgb(235,235,235);fill-opacity:0;stroke:black;stroke-width:0.42px;stroke-linecap:round;stroke-miterlimit:1.5;"/>
        </g>
        <g transform="matrix(3.33333,0,0,3.33333,3233.95,3216.25)">
            <circle cx="1946.38" cy="1088.22" r="35.236" style="fill:rgb(235,235,235);fill-opacity:0;stroke:black;stroke-width:0.42px;stroke-linecap:round;stroke-miterlimit:1.5;"/>
        </g>
        <g transform="matrix(3.33333,0,0,3.33333,2760.37,3285.1)">
            <circle cx="1919.94" cy="1036.85" r="100.308" style="fill:rgb(235,235,235);fill-opacity:0;stroke:black;stroke-width:0.42px;stroke-linecap:round;stroke-miterlimit:1.5;"/>
        </g>
        <g transform="matrix(3.33333,0,0,3.33333,2437.83,3147.36)">
            <circle cx="1846.58" cy="1243.96" r="26.634" style="fill:rgb(235,235,235);fill-opacity:0;stroke:black;stroke-width:0.42px;stroke-linecap:round;stroke-miterlimit:1.5;"/>
        </g>
        <g transform="matrix(3.33333,0,0,3.33333,2813.45,3147.36)">
            <circle cx="1846.58" cy="1243.96" r="26.634" style="fill:rgb(235,235,235);fill-opacity:0;stroke:black;stroke-width:0.42px;stroke-linecap:round;stroke-miterlimit:1.5;"/>
        </g>
        <g transform="matrix(3.33333,0,0,3.33333,3187.85,3147.36)">
            <circle cx="1846.58" cy="1243.96" r="26.634" style="fill:rgb(235,235,235);fill-opacity:0;stroke:black;stroke-width:0.42px;stroke-linecap:round;stroke-miterlimit:1.5;"/>
        </g>
        <g transform="matrix(3.33333,0,0,3.33333,3563.76,3147.36)">
            <circle cx="1846.58" cy="1243.96" r="26.634" style="fill:rgb(235,235,235);fill-opacity:0;stroke:black;stroke-width:0.42px;stroke-linecap:round;stroke-miterlimit:1.5;"/>
        </g>
        <g transform="matrix(3.33333,0,0,3.33333,2464.66,3251.79)">
            <circle cx="1948.92" cy="1380.82" r="35.594" style="fill:rgb(235,235,235);fill-opacity:0;stroke:black;stroke-width:0.42px;stroke-linecap:round;stroke-miterlimit:1.5;"/>
        </g>
        <g transform="matrix(3.33333,0,0,3.33333,2855.93,3251.79)">
            <circle cx="1948.92" cy="1380.82" r="35.594" style="fill:rgb(235,235,235);fill-opacity:0;stroke:black;stroke-width:0.42px;stroke-linecap:round;stroke-miterlimit:1.5;"/>
        </g>
        <g transform="matrix(3.33333,0,0,3.33333,3240.96,3251.79)">
            <circle cx="1948.92" cy="1380.82" r="35.594" style="fill:rgb(235,235,235);fill-opacity:0;stroke:black;stroke-width:0.42px;stroke-linecap:round;stroke-miterlimit:1.5;"/>
        </g>
        <g transform="matrix(3.33333,0,0,3.33333,2082.72,3882.2)">
            <circle cx="1948.92" cy="1380.82" r="35.594" style="fill:rgb(235,235,235);fill-opacity:0;stroke:black;stroke-width:0.42px;stroke-linecap:round;stroke-miterlimit:1.5;"/>
        </g>
        <g transform="matrix(3.33333,0,0,3.33333,2464.66,3882.2)">
            <circle cx="1948.92" cy="1380.82" r="35.594" style="fill:rgb(235,235,235);fill-opacity:0;stroke:black;stroke-width:0.42px;stroke-linecap:round;stroke-miterlimit:1.5;"/>
        </g>
        <g transform="matrix(3.33333,0,0,3.33333,2855.93,3882.2)">
            <circle cx="1948.92" cy="1380.82" r="35.594" style="fill:rgb(235,235,235);fill-opacity:0;stroke:black;stroke-width:0.42px;stroke-linecap:round;stroke-miterlimit:1.5;"/>
        </g>
        <g transform="matrix(3.33333,0,0,3.33333,3240.96,3882.2)">
            <circle cx="1948.92" cy="1380.82" r="35.594" style="fill:rgb(235,235,235);fill-opacity:0;stroke:black;stroke-width:0.42px;stroke-linecap:round;stroke-miterlimit:1.5;"/>
        </g>
        <g transform="matrix(3.33333,0,0,3.33333,2082.72,4510.99)">
            <circle cx="1948.92" cy="1380.82" r="35.594" style="fill:rgb(235,235,235);fill-opacity:0;stroke:black;stroke-width:0.42px;stroke-linecap:round;stroke-miterlimit:1.5;"/>
        </g>
        <g transform="matrix(3.33333,0,0,3.33333,2464.66,4510.99)">
            <circle cx="1948.92" cy="1380.82" r="35.594" style="fill:rgb(235,235,235);fill-opacity:0;stroke:black;stroke-width:0.42px;stroke-linecap:round;stroke-miterlimit:1.5;"/>
        </g>
        <g transform="matrix(3.33333,0,0,3.33333,2855.93,4510.99)">
            <circle cx="1948.92" cy="1380.82" r="35.594" style="fill:rgb(235,235,235);fill-opacity:0;stroke:black;stroke-width:0.42px;stroke-linecap:round;stroke-miterlimit:1.5;"/>
        </g>
        <g transform="matrix(3.33333,0,0,3.33333,3240.96,4510.99)">
            <circle cx="1948.92" cy="1380.82" r="35.594" style="fill:rgb(235,235,235);fill-opacity:0;stroke:black;stroke-width:0.42px;stroke-linecap:round;stroke-miterlimit:1.5;"/>
        </g>
        <g transform="matrix(3.33333,0,0,3.33333,3240.96,5141.53)">
            <circle cx="1948.92" cy="1380.82" r="35.594" style="fill:rgb(235,235,235);fill-opacity:0;stroke:black;stroke-width:0.42px;stroke-linecap:round;stroke-miterlimit:1.5;"/>
        </g>
        <g transform="matrix(3.33333,0,0,3.33333,2855.93,5141.53)">
            <circle cx="1948.92" cy="1380.82" r="35.594" style="fill:rgb(235,235,235);fill-opacity:0;stroke:black;stroke-width:0.42px;stroke-linecap:round;stroke-miterlimit:1.5;"/>
        </g>
        <g transform="matrix(3.33333,0,0,3.33333,2464.66,5141.53)">
            <circle cx="1948.92" cy="1380.82" r="35.594" style="fill:rgb(235,235,235);fill-opacity:0;stroke:black;stroke-width:0.42px;stroke-linecap:round;stroke-miterlimit:1.5;"/>
        </g>
        <g transform="matrix(3.33333,0,0,3.33333,2082.72,5141.53)">
            <circle cx="1948.92" cy="1380.82" r="35.594" style="fill:rgb(235,235,235);fill-opacity:0;stroke:black;stroke-width:0.42px;stroke-linecap:round;stroke-miterlimit:1.5;"/>
        </g>
        <g transform="matrix(3.33333,0,0,3.33333,2082.72,5771.88)">
            <circle cx="1948.92" cy="1380.82" r="35.594" style="fill:rgb(235,235,235);fill-opacity:0;stroke:black;stroke-width:0.42px;stroke-linecap:round;stroke-miterlimit:1.5;"/>
        </g>
        <g transform="matrix(3.33333,0,0,3.33333,2464.66,5771.88)">
            <circle cx="1948.92" cy="1380.82" r="35.594" style="fill:rgb(235,235,235);fill-opacity:0;stroke:black;stroke-width:0.42px;stroke-linecap:round;stroke-miterlimit:1.5;"/>
        </g>
        <g transform="matrix(3.33333,0,0,3.33333,2855.93,5771.88)">
            <circle cx="1948.92" cy="1380.82" r="35.594" style="fill:rgb(235,235,235);fill-opacity:0;stroke:black;stroke-width:0.42px;stroke-linecap:round;stroke-miterlimit:1.5;"/>
        </g>
        <g transform="matrix(3.33333,0,0,3.33333,3240.96,5771.88)">
            <circle cx="1948.92" cy="1380.82" r="35.594" style="fill:rgb(235,235,235);fill-opacity:0;stroke:black;stroke-width:0.42px;stroke-linecap:round;stroke-miterlimit:1.5;"/>
        </g>
        <g transform="matrix(3.33333,0,0,3.33333,2082.72,3251.79)">
            <circle cx="1948.92" cy="1380.82" r="35.594" style="fill:rgb(235,235,235);fill-opacity:0;stroke:black;stroke-width:0.42px;stroke-linecap:round;stroke-miterlimit:1.5;"/>
        </g>
    </g>
</svg>
